<?xml version="1.0" encoding="UTF-8" standalone="no"?>
<svg width="184.95007mm" height="42.788113mm" viewBox="0 0 184.95007 42.788113" class="banx-logo" xmlns="http://www.w3.org/2000/svg">
  <g aria-label="BANX" transform="translate(-15.137934,-49.444943)" class="banx-logo-group">
    <path class="banx-logo-line" d="m 43.559989,77.324395 q 0,-1.007691 -0.620118,-1.343588 -0.594279,-0.335897 -1.756999,-0.335897 h -11.98894 v -1.860352 h 11.98894 q 4.23747,0 4.23747,3.539837 0,1.989544 -1.162721,2.868044 -1.16272,0.8785 -3.074749,0.8785 h -11.98894 v -1.860353 h 11.98894 q 2.377117,0 2.377117,-1.886191 z M 28.160403,92.233055 H 26.30005 V 60.60706 h 14.882822 q 1.756999,0 2.997235,1.085205 1.240235,1.059368 1.240235,2.661338 0,2.118735 -1.162721,3.07475 -1.16272,0.930176 -3.074749,0.930176 h -11.98894 v -1.860353 h 11.98894 q 2.377117,0 2.377117,-2.144573 0,-0.8785 -0.671794,-1.369426 -0.671794,-0.516765 -1.705323,-0.516765 H 28.160403 Z m 1.033529,-22.014173 h 11.98894 q 2.557985,0 4.314984,-1.524456 1.782838,-1.550294 1.782838,-4.340823 0,-2.247926 -1.860352,-3.927411 -1.834515,-1.679485 -4.23747,-1.679485 H 24.439698 V 92.233055 H 22.579345 V 56.886354 h 18.603527 q 3.178102,0 5.55522,2.247926 2.402955,2.222088 2.402955,5.219323 0,2.351279 -1.111044,4.108279 -1.085206,1.757 -2.945558,2.713014 4.056602,1.446941 4.056602,5.891117 0,3.514 -2.325441,5.632735 -2.325441,2.092896 -5.632734,2.092896 h -11.98894 v -1.860352 h 11.98894 q 2.557985,0 4.314984,-1.524456 1.782838,-1.550294 1.782838,-4.340823 0,-1.886191 -1.343588,-3.333132 -1.343588,-1.446941 -3.953249,-1.679485 -0.258382,0.02584 -0.800985,0.02584 h -11.98894 z m 23.66782,-5.865279 q 0,3.617353 -2.557984,6.537073 2.557984,2.842205 2.557984,6.175337 0,3.229779 -1.627808,5.891117 -1.601971,2.6355 -4.289147,4.108279 -2.661337,1.446941 -5.761925,1.446941 h -11.98894 v -1.860353 h 11.98894 q 4.030764,0 6.924646,-2.687176 2.893882,-2.713014 2.893882,-6.898808 0,-1.498617 -0.775147,-3.307294 -0.749309,-1.834514 -2.092897,-2.790529 2.868044,-2.687176 2.868044,-6.614587 0,-3.772382 -2.945559,-6.537072 -2.945558,-2.790529 -6.872969,-2.790529 H 20.718992 V 92.233055 H 18.85864 V 53.165649 h 22.324232 q 3.074749,0 5.761925,1.524456 2.713015,1.498617 4.314985,4.108278 1.60197,2.583824 1.60197,5.55522 z m -0.439249,6.640426 q 2.299602,-3.07475 2.299602,-6.640426 0,-3.488161 -1.860353,-6.485396 -1.834514,-3.023073 -4.96094,-4.780073 -3.126426,-1.782838 -6.71794,-1.782838 H 16.998287 V 92.233055 H 15.137934 V 49.444943 h 26.044938 q 4.08244,0 7.622278,2.015383 3.565676,2.015382 5.658573,5.477705 2.118735,3.436484 2.118735,7.415572 0,3.79822 -2.144573,6.666264 2.144573,2.971397 2.144573,6.046146 0,3.462323 -1.240235,6.356205 -1.240235,2.868044 -3.35897,4.780073 -2.092897,1.912029 -4.883426,2.971397 -2.790529,1.059367 -5.916955,1.059367 h -11.98894 v -1.860353 h 11.98894 q 2.713014,0 5.193484,-1.007691 2.480471,-1.033529 4.314985,-2.790529 1.834514,-1.756999 2.91972,-4.23747 1.111044,-2.48047 1.111044,-5.270999 0,-1.240235 -0.594279,-2.971397 -0.568441,-1.756999 -1.705323,-3.100587 z" />
    <path class="banx-logo-line" d="m 79.242588,79.675675 0.749308,-1.860353 h 6.356205 l 0.749309,1.860353 z m -1.446941,3.720705 0.72347,-1.860353 h 9.275925 l 0.800985,1.860353 z m -1.446941,3.720705 0.72347,-1.860352 h 12.195645 l 0.775147,1.860352 z M 61.23334,92.233055 H 59.217958 L 76.142,49.444943 h 2.015382 L 95.055585,92.233055 H 93.066041 L 77.149691,51.951252 Z M 77.382235,56.36959 78.441602,58.746707 65.212428,92.233055 h -1.989544 z m 2.067058,4.909264 0.981853,2.557985 -11.187954,28.396216 H 67.22781 Z m 1.963706,5.115969 0.981853,2.609662 -9.172572,23.22857 h -1.989544 z m 25.657361,25.838232 h -2.01538 L 88.156777,49.444943 h 1.989544 z M 86.141395,49.444943 103.06544,92.233055 h -1.98955 L 84.151852,49.444943 Z m -4.004926,0 16.924042,42.788112 H 97.045129 L 80.146926,49.444943 Z" />
    <path class="banx-logo-line" d="m 140.71174,71.639984 -1.86035,-3.074749 V 49.444943 h 1.86035 z m 3.72071,6.097823 -1.86035,-3.126426 V 49.444943 h 1.86035 z m 3.7207,6.175338 -1.86035,-3.152265 V 49.444943 h 1.86035 z m -26.66505,-13.875131 1.86035,3.07475 v 19.120291 h -1.86035 z m -3.72071,-6.097823 1.86036,3.126426 v 25.166438 h -1.86036 z m -3.7207,-6.175337 1.86035,3.152264 v 31.315937 h -1.86035 z m 0.64595,-8.319911 h 2.17042 l 26.30332,42.788112 h -2.17042 z m 4.3925,0 h 2.19625 l 26.27749,42.788112 h -2.22209 z m 4.36667,0 h 2.17041 l 24.39129,39.765039 V 49.444943 h 1.86035 v 42.788112 q 0,0 -2.19625,0 z m -11.26547,3.023074 v 39.765038 h -1.86036 V 49.444943 q 0,0 2.22209,0 l 26.22581,42.788112 h -2.14458 z" />
    <path class="banx-logo-line" d="m 169.75391,69.107838 -1.11104,1.757 -13.46172,-21.419895 h 2.19625 z m 9.17258,13.978483 1.0852,-1.757 6.87297,10.903734 h -2.19625 z m -6.97633,-17.440806 -1.11104,1.731161 -11.26547,-17.931733 h 2.17041 z m 9.17258,13.952645 1.0852,-1.757 9.06922,14.391895 h -2.19625 z m -6.97633,-17.466645 -1.0852,1.731162 -9.09506,-14.417734 h 2.19625 z m 9.19841,13.952645 1.08521,-1.756999 11.26547,17.905894 h -2.19625 z m -7.00216,-17.440806 -1.0852,1.757 -6.89881,-10.955411 h 2.19625 z m 9.17258,13.952645 1.0852,-1.757 13.48756,21.394056 h -2.19625 z m 11.0846,-23.151056 h 2.19625 l -26.92344,42.788112 h -2.19625 z m -4.36666,0 h 2.17041 l -26.92344,42.788112 h -2.19625 z m -4.41834,0 h 2.19625 l -26.94928,42.788112 h -2.19625 z m -4.3925,0 h 2.19625 l -26.94928,42.788112 h -2.19625 z" />
  </g>
</svg>
