<?xml version="1.0" encoding="UTF-8" standalone="no"?>
<svg width="31.901606mm" height="128.00882mm" viewBox="0 0 31.901606 128.00882" xmlns="http://www.w3.org/2000/svg">
  <g transform="translate(-72.444835,-113.66354)">
    <g aria-label="BANX">
      <path d="m 93.735539,132.24984 q 0,-0.6718 -0.413412,-0.89573 -0.396186,-0.22393 -1.171333,-0.22393 h -7.992627 v -1.24023 h 7.992627 q 2.82498,0 2.82498,2.35989 0,1.32636 -0.775147,1.91203 -0.775147,0.58566 -2.049833,0.58566 h -7.992627 v -1.24023 h 7.992627 q 1.584745,0 1.584745,-1.25746 z m -10.266391,9.93911 h -1.240236 v -21.084 h 9.921882 q 1.171333,0 1.998157,0.72347 0.826823,0.70624 0.826823,1.77422 0,1.41249 -0.775147,2.04984 -0.775147,0.62011 -2.049833,0.62011 h -7.992627 v -1.24023 h 7.992627 q 1.584745,0 1.584745,-1.42972 0,-0.58566 -0.447863,-0.91295 -0.447862,-0.34451 -1.136882,-0.34451 h -8.681646 z m 0.689019,-14.67612 h 7.992627 q 1.705323,0 2.876657,-1.0163 1.188558,-1.03353 1.188558,-2.89389 0,-1.49861 -1.240235,-2.61827 -1.223009,-1.11966 -2.82498,-1.11966 H 80.988677 v 22.32424 h -1.240235 v -23.56447 h 12.402352 q 2.118735,0 3.70348,1.49861 1.601971,1.4814 1.601971,3.47955 0,1.56752 -0.740696,2.73886 -0.723471,1.17133 -1.963706,1.80867 2.704402,0.96463 2.704402,3.92741 0,2.34267 -1.550294,3.75516 -1.550294,1.39526 -3.755157,1.39526 h -7.992627 v -1.24023 h 7.992627 q 1.705323,0 2.876657,-1.0163 1.188558,-1.03353 1.188558,-2.89389 0,-1.25746 -0.895725,-2.22208 -0.895725,-0.96463 -2.6355,-1.11966 -0.172255,0.0172 -0.53399,0.0172 h -7.992627 z m 15.778548,-3.91019 q 0,2.41157 -1.705323,4.35805 1.705323,1.89481 1.705323,4.11689 0,2.15319 -1.085206,3.92742 -1.06798,1.757 -2.859431,2.73885 -1.774225,0.96463 -3.841284,0.96463 h -7.992627 v -1.24024 h 7.992627 q 2.687176,0 4.616431,-1.79145 1.929255,-1.80868 1.929255,-4.59921 0,-0.99907 -0.516765,-2.20486 -0.499539,-1.22301 -1.395264,-1.86035 1.912029,-1.79145 1.912029,-4.40973 0,-2.51492 -1.963706,-4.35805 -1.963706,-1.86035 -4.58198,-1.86035 H 78.508207 v 24.80471 h -1.240235 v -26.04494 h 14.882822 q 2.049833,0 3.841284,1.0163 1.808676,0.99908 2.876657,2.73885 1.06798,1.72255 1.06798,3.70348 z m -0.292833,4.42695 q 1.533068,-2.04983 1.533068,-4.42695 0,-2.32544 -1.240235,-4.32359 -1.22301,-2.01539 -3.307294,-3.18672 -2.084284,-1.18856 -4.478627,-1.18856 H 76.027736 v 27.28518 h -1.240235 v -28.52541 h 17.363293 q 2.721627,0 5.081519,1.34358 2.377118,1.34359 3.772387,3.65181 1.41249,2.29099 1.41249,4.94371 0,2.53215 -1.42972,4.44418 1.42972,1.98093 1.42972,4.03076 0,2.30822 -0.82683,4.23747 -0.82682,1.91203 -2.239312,3.18672 -1.395264,1.27469 -3.255617,1.98093 -1.860353,0.70625 -3.944637,0.70625 h -7.992627 v -1.24024 h 7.992627 q 1.808676,0 3.462323,-0.67179 1.653647,-0.68902 2.876657,-1.86036 1.22301,-1.17133 1.946476,-2.82498 0.7407,-1.65364 0.7407,-3.514 0,-0.82682 -0.39619,-1.98093 -0.37896,-1.17133 -1.136878,-2.06706 z" />
      <path d="m 85.794589,166.97849 0.49954,-1.24023 h 4.23747 l 0.499539,1.24023 z m -0.964627,2.48047 0.482314,-1.24023 h 6.18395 l 0.53399,1.24023 z m -0.964627,2.48047 0.482313,-1.24023 h 8.130431 l 0.516765,1.24023 z m -10.076911,3.41065 h -1.343589 l 11.282696,-28.52541 h 1.343588 l 11.26547,28.52541 H 95.010226 L 84.399325,148.49554 Z m 10.76593,-23.90898 0.706245,1.58474 -8.81945,22.32424 h -1.326363 z m 1.378039,3.27284 0.654569,1.70533 -7.458637,18.93081 h -1.343588 z m 1.309137,3.41065 0.654569,1.73977 -6.115049,15.48572 h -1.326362 z m 17.10491,17.22549 h -1.34359 L 91.737383,146.82467 h 1.326363 z m -13.952645,-28.52541 11.282695,28.52541 h -1.32636 L 89.067432,146.82467 Z m -2.669951,0 11.282695,28.52541 H 97.662951 L 86.397482,146.82467 Z" />
      <path d="m 94.769068,194.7825 -1.240235,-2.04983 v -12.74686 h 1.240235 z m 2.480471,4.06522 -1.240236,-2.08429 v -16.77762 h 1.240236 z m 2.48047,4.11689 -1.240235,-2.10151 v -20.87729 h 1.240235 z m -17.776705,-9.25009 1.240236,2.04983 v 12.74687 h -1.240236 z m -2.48047,-4.06522 1.240235,2.08429 v 16.77763 h -1.240235 z m -2.480471,-4.11689 1.240236,2.10151 v 20.8773 h -1.240236 z m 0.430638,-5.5466 h 1.446941 l 17.535548,28.52541 h -1.446941 z m 2.928333,0 H 81.8155 l 17.518323,28.52541 h -1.481392 z m 2.911108,0 h 1.446941 l 16.260857,26.51002 v -26.51002 h 1.24024 v 28.52541 q 0,0 -1.46417,0 z m -7.510314,2.01538 v 26.51003 h -1.240235 v -28.52541 q 0,0 1.481392,0 l 17.483871,28.52541 h -1.429715 z" />
      <path d="m 83.184927,226.25553 -0.740696,1.17133 -8.974479,-14.27993 h 1.464166 z m 6.115049,9.31899 0.723471,-1.17134 4.58198,7.26916 H 93.14126 Z m -4.650882,-11.62721 -0.740696,1.15411 -7.510313,-11.95449 h 1.446941 z m 6.115049,9.30177 0.72347,-1.17134 6.046147,9.5946 h -1.464167 z m -4.650882,-11.64443 -0.723471,1.1541 -6.063372,-9.61182 h 1.464166 z m 6.132274,9.30176 0.72347,-1.17133 7.510315,11.93726 h -1.464168 z m -4.668108,-11.62721 -0.72347,1.17134 -4.599206,-7.30361 h 1.464167 z m 6.115049,9.30177 0.72347,-1.17133 8.991704,14.2627 h -1.46417 z m 7.389734,-15.43404 h 1.46417 l -17.948962,28.52541 h -1.464167 z m -2.911107,0 h 1.446941 l -17.94896,28.52541 h -1.464166 z m -2.945559,0 h 1.464167 l -17.966185,28.52541 h -1.464167 z m -2.928333,0 h 1.464167 l -17.966185,28.52541 h -1.464167 z" />
    </g>
  </g>
</svg>
