<svg xmlns="http://www.w3.org/2000/svg" viewBox="0 0 30 30">
  <circle cx="15" cy="15" r="15" fill="currentColor" />
  <path
    d="M15.59,25.5a4.56,4.56,0,0,1-1.86-.36c-.06,0-1.4-.65-2.9-1.56s-2.69-1.81-2.74-1.85A4.66,4.66,0,0,1,7,20.43l.86-.51a3.69,3.69,0,0,0,.86,1s1.19.91,2.65,1.79,2.79,1.5,2.81,1.51a4,4,0,0,0,2.87,0s1.35-.63,2.81-1.51,2.64-1.78,2.65-1.79a4.42,4.42,0,0,0,1.45-2.64s.16-1.54.16-3.3-.15-3.29-.16-3.3a4.43,4.43,0,0,0-1.45-2.64s-1.19-.91-2.65-1.79S17,5.77,17,5.77a4,4,0,0,0-2.87,0s-1.35.63-2.8,1.51S8.71,9.05,8.7,9.06a3.71,3.71,0,0,0-.86,1L7,9.57a4.64,4.64,0,0,1,1.11-1.3s1.23-.94,2.74-1.85,2.85-1.53,2.9-1.56a5,5,0,0,1,3.71,0c.06,0,1.39.65,2.9,1.56S23,8.23,23.09,8.27a5.41,5.41,0,0,1,1.84,3.33c0,.06.16,1.59.16,3.4s-.15,3.34-.16,3.4a5.41,5.41,0,0,1-1.84,3.33s-1.23.94-2.74,1.85-2.85,1.53-2.9,1.56A4.56,4.56,0,0,1,15.59,25.5Z"
    fill="#fff" />
  <polygon points="4 12 8 12 8 13 5 13 5 18 4 18 4 12" fill="#fff" />
  <path d="M12,13a2,2,0,1,1-2,2,2,2,0,0,1,2-2m0-1a3,3,0,1,0,3,3,3,3,0,0,0-3-3Z" fill="#fff" />
  <path d="M19,18a3,3,0,1,1,1.82-5.39l-.61.79A2,2,0,0,0,19,13a2,2,0,1,0,1.29,3.53l.64.77A3,3,0,0,1,19,18Z"
        fill="#fff" />
</svg>
