<svg width="169" height="120" viewBox="0 0 169 120" fill="none" xmlns="http://www.w3.org/2000/svg">
  <path fill="currentColor" d="M108.99 0C75.5725 0 48.9902 26.962 48.9902 60C48.9902 93.4177 75.9523 120 108.99 120C142.028 120 168.99 93.038 168.99 60C168.99 26.962 142.028 0 108.99 0ZM108.99 82.4051C96.8383 82.4051 86.5852 72.1519 86.5852 60C86.5852 47.8481 96.8383 37.5949 108.99 37.5949C121.142 37.5949 131.395 47.8481 131.395 60C131.016 72.1519 121.142 82.4051 108.99 82.4051Z"/>
  <path fill="currentColor" d="M48.6076 17.4684V104.81H27.3418L0 17.4684H48.6076V17.4684Z" />
</svg>
