<svg width="36" height="32" viewBox="0 0 36 32" fill="none" xmlns="http://www.w3.org/2000/svg">
  <path fill-rule="evenodd" clip-rule="evenodd" d="M35.4112 14.9677L35.875 13.4794L34.34 13.5281C34.2105 13.5281 33.268 13.5007 32.3533 12.8365C32.4218 12.8423 32.4894 12.8525 32.5597 12.8525C33.5009 12.8525 34.4126 12.2844 34.7773 11.4714L35.4373 10.0035C34.6088 10.0146 33.852 9.90961 33.852 9.90961C33.8458 9.90917 33.249 9.83163 32.5593 9.12494C32.0646 8.61896 31.4523 8.35091 30.7891 8.35091C30.4987 8.35091 30.2392 8.40363 30.0155 8.47452C30.0508 8.35534 30.0831 8.23483 30.103 8.11032C30.3134 6.73638 29.4319 5.68897 29.4315 5.68985L28.2767 4.25698L27.561 5.94019C27.5588 5.9455 27.3775 6.34028 27.0548 6.53257C26.9575 6.03766 26.7174 5.48161 26.2055 4.94993C25.2395 3.94816 24.064 3.79796 23.449 3.79796C23.1639 3.79796 22.9601 3.82942 22.911 3.83739L21.5175 4.1121C21.598 3.80018 21.7695 3.25609 22.0825 2.76739L22.8513 1.56712L20.9167 1.78733L20.3 0.475853L19.1068 1.0926L18.0029 0L16.9025 1.0926L15.7062 0.475853L15.0912 1.78733L13.1571 1.56624L13.9272 2.76783C14.2406 3.25609 14.4113 3.79885 14.4909 4.10988L13.1611 3.84714L13.1155 3.84005C13.0488 3.82942 12.8467 3.79796 12.5602 3.79796C11.9453 3.79796 10.7702 3.94816 9.80644 4.94949C9.29361 5.48073 9.05311 6.03766 8.95496 6.53257C8.634 6.34205 8.45451 5.95348 8.45451 5.95348L7.73743 4.26052L6.565 5.70226C6.42132 5.8879 5.71485 6.87284 5.90672 8.1121C5.92661 8.23571 5.95888 8.35534 5.99337 8.47452C5.77099 8.40319 5.51148 8.35091 5.22147 8.35091C4.55789 8.35091 3.94558 8.61896 3.45 9.12494C2.7621 9.82853 2.16925 9.90829 2.17411 9.90829C2.17411 9.90829 1.54634 10.0217 0.575495 10.0035L1.23201 11.4714C1.59762 12.2844 2.50966 12.8525 3.44911 12.8525C3.51985 12.8525 3.58749 12.8423 3.6569 12.8365C2.74441 13.5007 1.80187 13.5281 1.68781 13.5286L0.125 13.4794L0.598484 14.9672C0.837215 15.7342 1.63299 17.0044 3.15733 17.1413C2.99154 17.8378 2.62416 18.619 1.8169 18.9548L0.651977 19.4355L1.28727 20.5441C1.64536 21.1418 2.48711 21.8409 3.68475 21.8409C3.94382 21.8401 4.19404 21.8139 4.43542 21.7625C4.49688 22.0354 4.5738 22.3093 4.66487 22.5809C5.0212 23.6451 4.71394 24.3868 4.71085 24.3952L4.13568 25.6021L5.41909 25.9411C5.435 25.9459 5.82272 26.0532 6.30814 26.0532C6.52786 26.0532 6.73918 26.0301 6.93591 25.9827C7.0849 25.9477 7.22858 25.9016 7.36651 25.8454C7.53274 26.144 7.73434 26.4165 7.96953 26.6606C8.79183 27.5064 9.95763 27.9349 11.4333 27.9349H11.4382L12.4922 27.9211L10.3148 28.8285L11.9678 29.6292C12.5686 29.9225 13.2804 30.2694 14.0059 30.5348L13.7994 31.1006L14.3689 31.3611C14.4197 31.3841 15.5156 31.8751 17.3366 31.9796C17.3366 31.9796 17.7761 32 18.0183 32C18.2602 32 18.6948 31.9783 18.6948 31.9783C20.5038 31.8711 21.5909 31.3841 21.6418 31.3611L22.2129 31.1001L22.0047 30.5335C22.7501 30.2601 23.4888 29.8994 24.0644 29.6176L25.6869 28.8277L23.5167 27.9211L24.5751 27.9349C26.053 27.9349 27.2188 27.506 28.0398 26.6593C28.2741 26.4174 28.4752 26.1453 28.6423 25.8454C28.7807 25.9016 28.9253 25.9477 29.0747 25.9836C29.271 26.0301 29.4819 26.0532 29.7016 26.0532C30.1786 26.0532 30.5707 25.9473 30.5809 25.9437L31.8701 25.6021L31.3086 24.4174C31.2953 24.3868 30.9881 23.6451 31.3444 22.58C31.435 22.3084 31.5115 22.035 31.5739 21.7625C31.8157 21.8139 32.0681 21.8401 32.3294 21.8409C33.8555 21.8409 34.5872 20.7652 34.7286 20.5317L35.3573 19.4346L34.1933 18.9557C33.3838 18.619 33.0169 17.8383 32.8528 17.1422C34.3573 17.0111 35.1641 15.7395 35.4112 14.9677Z" fill="white"/>
  <path fill-rule="evenodd" clip-rule="evenodd" d="M18.0031 4.55795C16.7701 4.55928 15.8452 4.9638 15.6445 5.44054L18.0031 6.37364L20.3625 5.44054C20.1627 4.9638 19.2378 4.55928 18.0031 4.55795Z" fill="white"/>
  <path fill-rule="evenodd" clip-rule="evenodd" d="M18.0282 29.2534H17.9809C17.2338 29.2583 16.2041 29.105 15.7094 28.9596L15.1126 30.5768C15.5056 30.7173 16.8381 30.9862 18.0057 30.9862C19.171 30.9862 20.504 30.7173 20.8965 30.5768L20.301 28.9596C19.8037 29.105 18.7754 29.2583 18.0282 29.2534Z" fill="white"/>
  <path fill-rule="evenodd" clip-rule="evenodd" d="M22.5413 27.6443C22.0974 27.896 21.1062 28.2744 20.5302 28.4498L21.0138 29.7857C21.9055 29.5416 22.6421 29.2567 23.2495 28.951L22.2451 28.6164L22.5413 27.6443Z" fill="white"/>
  <path fill-rule="evenodd" clip-rule="evenodd" d="M13.4672 27.6443L13.7643 28.6164L12.759 28.951C13.3655 29.2567 14.1051 29.5416 14.9938 29.7857L15.4783 28.4498C14.9031 28.2744 13.9106 27.896 13.4672 27.6443Z" fill="white"/>
  <path fill-rule="evenodd" clip-rule="evenodd" d="M18.0033 3.01152C18.933 3.01152 19.8442 3.23439 20.5454 3.62561C20.6095 3.41073 20.6992 3.14932 20.8208 2.87506L20.5551 2.90696L20.2775 2.9362L20.1599 2.68233L19.8049 1.93177L19.159 2.26939L18.907 2.39743L18.7058 2.19894L18.0033 1.50244L17.3022 2.19894L17.1019 2.39743L16.8503 2.26939L16.2005 1.93177L15.8508 2.68233L15.7305 2.9362L15.4529 2.90696L15.1885 2.87506C15.3101 3.14932 15.3989 3.41073 15.4639 3.62561C16.1677 3.23439 17.078 3.01152 18.0033 3.01152Z" fill="white"/>
  <path fill-rule="evenodd" clip-rule="evenodd" d="M32.195 11.6863C32.3157 11.728 32.4382 11.7466 32.5597 11.7466C33.0858 11.7466 33.5938 11.4054 33.7684 11.016C33.7684 11.016 32.8047 10.9575 31.768 9.90254C31.4377 9.56094 31.0885 9.45859 30.7887 9.45859C30.3232 9.45859 29.9739 9.70449 29.9739 9.70449C31.2264 10.3731 31.4819 11.4449 32.195 11.6863Z" fill="white"/>
  <path fill-rule="evenodd" clip-rule="evenodd" d="M3.44947 11.7466C3.57105 11.7466 3.69395 11.728 3.81199 11.6859C4.52686 11.4449 4.7846 10.3731 6.03528 9.70494C6.03528 9.70494 5.68515 9.4586 5.22227 9.4586C4.92076 9.4586 4.57195 9.56094 4.24038 9.90299C3.20499 10.9575 2.24167 11.0164 2.24167 11.0164C2.41453 11.4054 2.92382 11.7466 3.44947 11.7466Z" fill="white"/>
  <path fill-rule="evenodd" clip-rule="evenodd" d="M31.8169 19.3833C30.8483 18.9043 30.236 17.6336 30.0883 17.1759C29.9274 19.6961 28.7001 21.4444 27.2655 23.1281C26.5211 24.0009 26.2611 24.8494 26.2611 24.8494C26.2611 24.8494 26.4048 23.8879 27.0485 23.1055C28.3871 21.494 29.6595 19.4869 29.7541 17.167C29.8191 15.5472 29.404 14.2344 28.7554 13.152C29.1184 14.2791 29.0666 15.6593 27.8354 16.9477C27.8354 16.9477 30.2873 14.0036 26.8593 10.9849C25.4879 9.83608 23.9861 9.12673 23.2137 8.62429C26.0056 9.53701 27.369 8.53214 27.369 8.53214C26.4777 9.30662 25.3234 9.29332 24.6072 9.18167C24.8018 9.27649 25.0038 9.37573 25.2209 9.4927C27.575 10.774 29.6904 12.8826 30.0512 15.8024V15.7803C30.5985 18.6473 31.8169 19.3833 31.8169 19.3833ZM32.534 16.0425C32.5557 16.0439 32.5742 16.0439 32.5963 16.0439C33.9085 16.0439 34.3532 14.6354 34.3532 14.6354H34.3276C34.0866 14.6354 32.1357 14.5787 30.7563 12.8219C29.8492 11.6668 29.1047 10.6513 27.6356 10.2517L27.491 10.226L27.4596 10.0784C27.419 9.8538 27.5732 9.64246 27.9221 9.41517C29.9499 8.08464 28.5724 6.38725 28.5724 6.38725C28.5724 6.38725 27.9937 7.74436 26.6983 7.74436C26.667 7.74436 26.6342 7.74259 26.602 7.74259C26.4552 7.73506 26.3128 7.72974 26.17 7.69917L25.9313 7.65265C25.9313 7.65265 26.3009 6.64556 25.4092 5.72133C24.7376 5.0235 23.9207 4.90475 23.4489 4.90475C23.2111 4.90475 23.0603 4.93533 23.0603 4.93533C23.5082 5.52195 23.8318 6.4958 23.315 7.0966C22.868 7.61277 21.7765 7.63759 21.7765 8.40719C21.7765 8.73329 22.0802 9.11344 22.6258 9.45504C24.2664 10.4905 25.8951 11.8649 26.5728 13.7063C27.419 16.0027 26.4654 17.5277 25.1046 18.4019C25.1046 18.4019 25.5317 18.7958 26.1501 18.8463C26.2766 18.8582 26.3995 18.864 26.514 18.864C27.8208 18.864 28.4968 18.2499 28.4968 18.2499C28.4968 18.2499 28.3849 19.0984 27.7054 19.8861C27.0777 20.6132 26.2549 21.0421 24.998 21.0598C24.998 21.0598 24.9587 21.6438 25.5149 22.1498C25.8712 22.4688 26.6926 22.5725 26.6926 22.5725C26.6926 22.5725 25.1537 22.8853 24.9839 25.1635C24.8915 26.3979 24.5767 26.8268 24.5767 26.8268H24.6041C28.1758 26.8268 28.0843 23.7568 28.0843 23.7568C28.0843 23.7568 28.3328 24.6659 29.3292 24.903C29.4495 24.9344 29.5781 24.9468 29.7006 24.9468C30.0211 24.9468 30.3001 24.8711 30.3001 24.8711C30.3001 24.8711 29.778 23.7683 30.2957 22.2255C30.7249 20.9451 30.656 19.9965 30.656 19.9965C30.656 19.9965 31.1365 20.7258 32.3302 20.7324H32.3421C33.3355 20.7324 33.7683 19.9779 33.7683 19.9779C31.3872 18.9867 31.6224 15.7896 31.6224 15.7896C31.6224 15.7896 31.9314 16.0208 32.534 16.0425Z" fill="white"/>
  <path fill-rule="evenodd" clip-rule="evenodd" d="M8.7428 23.1281C7.3082 21.4444 6.08139 19.6961 5.91914 17.1759C5.77104 17.6336 5.16095 18.9043 4.19276 19.3833C4.19276 19.3833 5.40985 18.6473 5.95672 15.7803V15.8024C6.31879 12.883 8.43378 10.7741 10.7884 9.49315C11.0041 9.37529 11.2079 9.27649 11.4011 9.18211C10.6854 9.29332 9.53106 9.30662 8.64023 8.53214C8.64023 8.53214 10.0037 9.53701 12.7946 8.62429C12.0223 9.12717 10.5218 9.83608 9.15041 10.9849C5.72152 14.0036 8.17382 16.9482 8.17382 16.9482C6.94082 15.6593 6.89131 14.2796 7.25383 13.152C6.60439 14.2344 6.18926 15.5472 6.25602 17.167C6.34974 19.4869 7.62165 21.4936 8.95766 23.1059C9.60444 23.8879 9.74989 24.8489 9.74989 24.8489C9.74989 24.8489 9.48685 24.0009 8.7428 23.1281ZM9.31664 22.5725C9.31664 22.5725 10.1385 22.4692 10.4953 22.1493C11.051 21.6438 11.0112 21.0598 11.0112 21.0598C9.75431 21.0421 8.93202 20.6132 8.30071 19.8866C7.62519 19.0984 7.51289 18.2499 7.51289 18.2499C7.51289 18.2499 8.18841 18.864 9.49348 18.864C9.61063 18.864 9.73265 18.8582 9.85865 18.8463C10.478 18.7958 10.9064 18.4023 10.9064 18.4023C9.54432 17.5277 8.59028 16.0031 9.43556 13.7063C10.1133 11.8653 11.7415 10.4905 13.383 9.4546C13.9277 9.11344 14.2314 8.73329 14.2314 8.40719C14.2314 7.63759 13.1412 7.61277 12.6947 7.0966C12.1779 6.4958 12.5015 5.52195 12.9484 4.93533C12.9484 4.93533 12.7995 4.90475 12.5603 4.90475C12.089 4.90475 11.2725 5.0235 10.6009 5.72133C9.70745 6.64556 10.0779 7.65265 10.0779 7.65265L9.8392 7.69917C9.69684 7.7293 9.55316 7.73506 9.40683 7.74304C9.37323 7.74304 9.34361 7.74436 9.31222 7.74436C8.01334 7.74436 7.43774 6.3877 7.43774 6.3877C7.43774 6.3877 6.06105 8.08464 8.08806 9.41517C8.43687 9.64246 8.59028 9.8538 8.54961 10.0784L8.51822 10.2255L8.371 10.2517C6.90413 10.6513 6.1592 11.6668 5.25069 12.8219C3.87224 14.5782 1.92393 14.6354 1.68122 14.6354H1.65469C1.65469 14.6354 2.09944 16.0439 3.41246 16.0439C3.43324 16.0439 3.45269 16.0439 3.4748 16.0425C4.07826 16.0208 4.38772 15.7896 4.38772 15.7896C4.38772 15.7896 4.62115 18.9867 2.24091 19.9774C2.24091 19.9774 2.67461 20.7328 3.66755 20.7328H3.67949C4.87359 20.7258 5.3537 19.9965 5.3537 19.9965C5.3537 19.9965 5.28429 20.9455 5.71224 22.2255C6.22993 23.7687 5.71047 24.8715 5.71047 24.8715C5.71047 24.8715 5.98811 24.9468 6.30863 24.9468C6.43286 24.9468 6.56018 24.9344 6.67954 24.903C7.6747 24.6659 7.92404 23.7568 7.92404 23.7568C7.92404 23.7568 7.83297 26.8268 11.4051 26.8268H11.4307C11.4307 26.8268 11.1182 26.3979 11.0262 25.1631C10.8569 22.8853 9.31664 22.5725 9.31664 22.5725Z" fill="white"/>
  <path fill-rule="evenodd" clip-rule="evenodd" d="M17.1972 11.2595H18.8812V11.8386C18.6831 11.5954 18.2976 11.645 18.2976 11.645V12.4797C18.2976 12.4797 18.3117 12.8904 18.4559 13.0681H17.6225C17.7684 12.8904 17.7812 12.4797 17.7812 12.4797V11.645C17.7812 11.645 17.397 11.5954 17.1972 11.8386V11.2595ZM15.3625 11.3464C15.4213 11.4093 15.4788 11.4775 15.5345 11.5466C15.5478 11.5626 15.5597 11.5767 15.573 11.5954C15.6242 11.6636 15.676 11.7363 15.7259 11.8102C15.737 11.8249 15.7476 11.8426 15.7595 11.8594C15.8192 11.9503 15.8758 12.0437 15.9319 12.1403C16.4474 13.0318 17.2715 13.5643 18.0032 13.5657C18.7357 13.5643 19.5589 13.0318 20.0757 12.1403C20.1327 12.0411 20.1906 11.9454 20.2503 11.8554C20.2592 11.8426 20.2689 11.8293 20.2769 11.816C20.3281 11.7394 20.3812 11.6649 20.4369 11.5927C20.4488 11.5767 20.4599 11.5626 20.4705 11.5493C20.528 11.4775 20.5872 11.4084 20.6478 11.3441C20.6579 11.3339 20.6668 11.3242 20.6765 11.3158C20.9391 11.0464 21.2517 10.8413 21.6615 10.7278L21.4789 10.6211H21.4687L20.7437 10.1993L19.9988 9.7717L18.0085 10.8577L18.0032 10.8532L17.9996 10.8577L16.0089 9.7717L15.2644 10.1993L14.538 10.6211H14.5296L14.3457 10.7278C14.7555 10.8413 15.0672 11.0442 15.3307 11.314C15.3422 11.3242 15.3501 11.3362 15.3625 11.3464Z" fill="white"/>
  <path fill-rule="evenodd" clip-rule="evenodd" d="M17.3701 7.57947V8.12444L17.2658 8.07659C17.2609 8.0726 17.1074 8.03804 16.8403 7.82581C16.3993 7.48332 16.3905 7.16697 16.3905 7.16697L17.3701 7.57947ZM17.8323 10.1364V6.7465L15.6784 6.01456L16.2463 9.29945L17.8323 10.1364Z" fill="white"/>
  <path fill-rule="evenodd" clip-rule="evenodd" d="M18.6397 7.57947L19.6193 7.16697C19.6193 7.16697 19.6109 7.48332 19.1682 7.82581C18.9019 8.03804 18.7485 8.0726 18.7432 8.07659L18.6397 8.12444V7.57947ZM19.7626 9.29945L20.3287 6.01456L18.1762 6.7465V10.1364L19.7626 9.29945Z" fill="white"/>
  <path fill-rule="evenodd" clip-rule="evenodd" d="M14.7868 17.9948C14.996 18.071 15.2507 18.0869 15.3812 18.0869C15.3861 18.071 15.3932 18.051 15.3994 18.0267C15.4108 17.9881 15.4219 17.9496 15.4299 17.9075C15.4666 17.7196 15.4794 17.5074 15.4825 17.37C15.3945 17.3146 15.2693 17.2172 15.1994 17.071C15.1198 16.9026 15.0053 16.8237 14.839 16.8237C14.6223 16.8237 14.3901 16.9544 14.2897 17.0156C14.2105 17.4843 14.5555 17.9092 14.7868 17.9948Z" fill="white"/>
  <path fill-rule="evenodd" clip-rule="evenodd" d="M19.5489 16.1968C19.1492 16.6328 18.3658 17.3913 18.3282 17.4289L18.2809 17.4768L15.8079 17.4378C15.8061 17.6833 15.7663 17.8919 15.7278 18.0452C15.7217 18.0705 15.7146 18.0971 15.7079 18.1237L18.6496 18.654C18.9556 18.4396 19.7978 17.8228 20.1254 17.5814C19.8875 17.2331 19.865 16.8202 19.9185 16.5295C19.762 16.4298 19.6435 16.3164 19.5489 16.1968Z" fill="white"/>
  <path fill-rule="evenodd" clip-rule="evenodd" d="M19.8839 13.2152C19.314 13.7815 18.7676 13.9919 18.2795 14.0402C18.1902 14.0495 18.1009 14.0553 18.0103 14.0553H17.9979C17.9068 14.0553 17.8166 14.0495 17.7287 14.0402C17.6429 14.0327 17.5536 14.019 17.4639 13.9986C17.432 14.1262 17.3913 14.392 17.5072 14.645C17.6106 14.8736 17.8206 15.0438 18.127 15.1576L18.23 15.198L18.2318 15.3092C18.2318 15.342 18.2561 16.0633 19.0399 16.2635C19.1681 16.1315 19.2844 16.0119 19.3706 15.9117C19.2106 15.5338 19.2946 15.1479 19.5271 14.9591C19.5169 14.999 19.4148 15.9454 20.1717 16.2972L20.2964 16.3566L20.2592 16.4895C20.2468 16.5294 19.9944 17.4456 20.9113 17.7864L21.0736 17.8479L21.0015 18.0057C20.9856 18.0407 20.6262 18.8714 21.4728 19.3437H23.3083V17.8829C22.6554 17.8032 22.3795 17.2773 22.3079 16.9051C22.0042 16.8528 21.7699 16.7217 21.6085 16.5077C21.2234 15.9995 21.5546 15.5338 21.559 15.5085C21.5581 15.5125 21.559 16.0079 21.864 16.314C22.0157 16.4611 22.1943 16.5759 22.4653 16.6016L22.5988 16.6136L22.6103 16.7505C22.6125 16.7793 22.6859 17.4505 23.3083 17.5555L23.307 14.5715C23.307 14.1093 23.4414 13.6446 23.6032 13.2152H19.8839Z" fill="white"/>
  <path fill-rule="evenodd" clip-rule="evenodd" d="M14.9432 14.5825L14.8932 16.4824L15.1091 16.5156L15.6362 14.6924L15.3687 14.1315L14.9432 14.5825Z" fill="white"/>
  <path fill-rule="evenodd" clip-rule="evenodd" d="M16.0847 21.6167C16.0233 21.6149 15.9782 21.5626 15.9821 21.501C15.987 21.4421 16.037 21.3956 16.0975 21.4009C16.1594 21.4031 16.2027 21.4576 16.201 21.5157C16.1952 21.5759 16.1435 21.622 16.0847 21.6167ZM20.7528 23.2986C20.7691 23.2986 20.7873 23.3008 20.805 23.3052C21.133 23.3991 21.2157 24.5834 21.7908 24.6889C21.8474 24.7009 21.8991 24.7044 21.9447 24.7044C22.1113 24.7044 22.2104 24.6335 22.3174 24.5068C22.3174 24.5068 22.0278 24.0513 21.8116 23.7434C21.5238 23.3411 21.301 22.855 20.7656 22.855C20.7528 22.855 20.7373 22.855 20.724 22.8568C20.5481 22.8657 20.4393 22.9521 20.4393 22.9521C20.2223 22.8152 20.0202 22.7691 19.8381 22.7691C19.503 22.7691 19.2421 22.9233 19.1113 22.9233H19.1064L17.911 22.805C17.7244 22.7868 17.5763 22.5981 17.5233 22.5245C17.51 22.5041 17.5025 22.4926 17.5025 22.4926C17.5025 22.4598 17.5025 22.4266 17.5007 22.3969C17.4605 21.4173 16.7036 20.9982 16.434 20.9915C16.434 20.9915 16.4658 20.805 16.3933 20.7341L16.1289 21.0549L15.2646 20.6198L15.8818 21.3424L15.3592 21.9304C15.2934 21.9973 15.3018 22.0877 15.3292 22.1262L15.5546 22.326L15.8411 22.1519C15.8553 22.1413 15.8818 22.1377 15.9132 22.1377C15.9923 22.1377 16.1112 22.1585 16.2178 22.1585C16.3349 22.1585 16.4353 22.1337 16.4477 22.0239C16.4119 22.3872 16.0754 23.0181 16.296 23.5143L16.46 23.8887L15.403 23.7363L14.9083 24.5733C14.7558 24.8519 14.7319 25.1532 14.8787 25.3176L15.0635 25.5493C15.0635 25.5493 15.3234 25.2737 15.3813 25.0921L15.2973 24.9995C15.2266 24.9215 15.2301 24.8519 15.2735 24.7682L15.5838 24.2525L16.831 24.5471L16.8968 24.4346C16.9817 24.2932 17.1037 24.2516 17.2372 24.2516C17.2925 24.2516 17.3487 24.2582 17.4075 24.2675C17.6391 24.3132 18.0202 24.3748 18.4013 24.3748C18.8191 24.3748 19.2342 24.2999 19.4557 24.0513C19.9075 24.7226 20.8231 24.8294 20.751 25.1705L20.5096 26.3207C20.6692 26.3136 20.8231 26.3034 20.969 26.2831L21.1984 25.0868C21.2236 24.9561 21.2475 24.7811 21.2475 24.7811C21.1595 24.6911 20.9455 24.5015 20.8248 24.2706C20.6635 23.9596 20.751 23.797 20.6007 23.3925C20.6007 23.3925 20.6471 23.2986 20.7528 23.2986Z" fill="white"/>
  <path fill-rule="evenodd" clip-rule="evenodd" d="M14.3811 24.3867C14.3811 24.3867 14.7951 24.2161 14.8318 24.0947L14.7765 23.9565C14.7371 23.8661 14.7424 23.7686 14.8185 23.7159L15.2648 23.4062L16.0105 23.5502C16.0105 23.5502 15.8756 23.3805 15.8888 23.1545L15.1768 23.0034L14.5054 23.4133C14.2175 23.6286 14.1967 23.9813 14.2918 24.1904L14.3811 24.3867Z" fill="white"/>
  <path fill-rule="evenodd" clip-rule="evenodd" d="M19.6558 26.3359C19.7889 26.3306 19.9371 26.3284 20.0985 26.3284C20.0985 26.3284 20.4824 25.2034 20.5041 25.168C20.2891 25.0727 19.842 24.8352 19.6695 24.7267C19.784 24.8977 20.0605 25.0922 20.0056 25.2429L19.6558 26.3359Z" fill="white"/>
  <path fill-rule="evenodd" clip-rule="evenodd" d="M23.3083 19.666H12.7006V23.6646C12.7006 25.3004 13.8815 26.3239 15.6242 26.3239C17.0796 26.3239 17.4638 26.3811 18.0053 26.9194C18.3785 26.5463 18.687 26.4072 19.321 26.3554L19.336 26.2933L19.6703 25.2574C19.6517 25.234 19.1048 24.6119 19.1048 24.6119C18.8882 24.6841 18.7061 24.6961 18.4006 24.6961C18.0862 24.6961 17.7326 24.6593 17.3475 24.5871C17.309 24.5782 17.2728 24.5742 17.237 24.5742C17.1897 24.5742 17.1866 24.5782 17.1742 24.6013L17.1079 24.7111L16.9863 24.9127L16.7573 24.8596L15.7392 24.6194L15.5995 24.8503L15.6202 24.8751L15.744 25.012L15.6892 25.1901C15.614 25.4232 15.3713 25.6952 15.2971 25.7705L15.0429 26.0439L14.8108 25.7501L14.6366 25.5313C14.4535 25.3257 14.4111 25.012 14.5141 24.6823C14.5119 24.6841 14.5084 24.6859 14.5039 24.6863L14.217 24.8055L14.0879 24.5242L13.9973 24.3248C13.8412 23.9739 13.8987 23.4613 14.3196 23.1511L15.1388 22.6872L15.9186 22.841C15.9372 22.7661 15.9651 22.4976 15.9876 22.4294C15.9721 22.4276 15.9584 22.424 15.943 22.424L15.4938 22.5924L15.0601 22.2924C15.0601 22.2924 14.8908 22.129 15.0446 21.9655L15.4637 21.3283L14.4005 19.9907L16.0345 20.6633L16.1437 20.5286L16.3638 20.2637L16.6145 20.5025C16.6852 20.5707 16.7259 20.6549 16.7458 20.7391C17.1959 20.915 18.0031 21.4333 18.0743 22.2765L17.8219 22.3775V22.3837C17.8798 22.4524 17.9275 22.4808 17.9426 22.4834L19.1088 22.5982C19.1389 22.5933 19.1751 22.58 19.2167 22.568C19.3621 22.5184 19.5792 22.4466 19.8374 22.4466C20.0478 22.4466 20.2507 22.4949 20.4461 22.5866C20.5182 22.5592 20.6066 22.5392 20.7092 22.5326L20.7653 22.5313C21.3896 22.5313 21.7004 22.9987 21.9493 23.3722C21.9908 23.4369 22.0324 23.4976 22.0757 23.5578C22.2932 23.8662 22.5784 24.3173 22.5899 24.3368L22.7185 24.5379L22.5611 24.7218C22.44 24.8622 22.2574 25.0275 21.9448 25.0275C21.8803 25.0275 21.8096 25.0204 21.7335 25.0058C21.6672 24.9934 21.6062 24.9734 21.5478 24.9486C21.5394 25.0107 21.5262 25.0842 21.5147 25.1476L21.3104 26.2171C22.5337 25.9158 23.3105 24.9903 23.3105 23.6646L23.3083 19.666Z" fill="#FFDD2D"/>
  <path fill-rule="evenodd" clip-rule="evenodd" d="M12.7008 19.3437H20.9512C20.5392 18.9171 20.5454 18.377 20.6501 18.0261C20.5299 17.9685 20.4309 17.8993 20.3429 17.8231C20.0202 18.0615 19.0361 18.7797 18.7788 18.9596L18.7235 18.9968L15.4856 18.4102H15.4202C15.3424 18.4102 15.2287 18.4071 15.1041 18.392C15.0691 18.5391 14.9431 18.6388 14.799 18.6388C14.7822 18.6388 14.7641 18.6375 14.7473 18.6339C14.6629 18.6193 14.589 18.5763 14.54 18.5054C14.4896 18.4354 14.4697 18.3526 14.4834 18.2671L14.4953 18.1971C14.162 17.9614 13.8534 17.4346 13.99 16.8794L14.0032 16.8209L14.0506 16.7868C14.0572 16.7819 14.1129 16.7434 14.1969 16.696L13.9617 16.6596C13.8737 16.6441 13.8145 16.5617 13.8282 16.4749C13.8432 16.3867 13.9259 16.3238 14.0125 16.3406L14.5731 16.4292L14.6244 14.4514L15.4582 13.567L15.979 14.6654L15.4294 16.5684L15.925 16.6463C16.0121 16.6601 16.0718 16.742 16.0585 16.832C16.0457 16.9117 15.9776 16.9654 15.8998 16.9654C15.8914 16.9654 15.8826 16.9654 15.8742 16.9645L15.4714 16.8993C15.4768 16.9117 15.4847 16.9188 15.4896 16.9312C15.5325 17.0203 15.6275 17.0832 15.6832 17.1111L18.1514 17.1506C18.2562 17.0486 18.5148 16.7943 18.7819 16.5254C18.174 16.2941 17.9534 15.77 17.9167 15.4213C17.5771 15.2764 17.3428 15.0593 17.2129 14.777C17.0546 14.4275 17.1107 14.077 17.1532 13.9069C16.8238 13.7868 16.4781 13.567 16.1244 13.2152H12.406C12.5656 13.6446 12.7008 14.1093 12.7008 14.5715V19.3437Z" fill="#FFDD2D"/>
  <path fill-rule="evenodd" clip-rule="evenodd" d="M16.0974 21.4009C16.0368 21.3952 15.9869 21.4423 15.982 21.5018C15.978 21.5636 16.0231 21.616 16.0846 21.6174C16.1434 21.6223 16.1952 21.5769 16.2009 21.516C16.2027 21.4578 16.1594 21.4032 16.0974 21.4009Z" fill="black"/>
  <path fill-rule="evenodd" clip-rule="evenodd" d="M21.0145 29.786L20.5299 28.4502C21.1064 28.2743 22.0976 27.8959 22.5419 27.6442L22.2457 28.6163L23.2493 28.9509C22.6423 29.2561 21.9062 29.541 21.0145 29.786ZM18.006 30.9867C16.838 30.9867 15.5055 30.7174 15.1125 30.5773L15.7093 28.9597C16.204 29.1046 17.2337 29.2583 17.9808 29.2535H18.0281C18.7753 29.2583 19.8036 29.1046 20.3009 28.9597L20.8964 30.5773C20.5039 30.7174 19.1709 30.9867 18.006 30.9867ZM12.7597 28.9509L13.765 28.6163L13.4675 27.6442C13.9109 27.8959 14.9038 28.2743 15.479 28.4502L14.994 29.786C14.1054 29.541 13.3662 29.2561 12.7597 28.9509ZM23.2944 28.654L22.6834 28.4192L22.8523 27.786L23.038 27.0966C23.038 27.0966 21.9553 27.6855 20.4291 28.1272C19.9963 28.2512 19.6687 28.3084 19.6687 28.3084V28.7781C19.6687 28.7781 18.8526 28.9198 18.0281 28.9198H17.9808C17.1554 28.9198 16.3407 28.7781 16.3407 28.7781V28.3084C16.3407 28.3084 16.0122 28.2512 15.5798 28.1272C14.0541 27.6855 12.9723 27.0966 12.9723 27.0966L13.1554 27.786L13.3278 28.4192L12.7146 28.654L12.0347 28.9083C12.8136 29.2858 13.8937 29.8343 14.8817 30.1055L14.6488 30.7439C14.6488 30.7439 15.9021 31.3159 17.9901 31.3213V31.3226H18.0184V31.3213C20.1086 31.3159 21.3611 30.7439 21.3611 30.7439L21.1268 30.1055C22.1153 29.8343 23.1971 29.2858 23.9725 28.9083L23.2944 28.654Z" fill="black"/>
  <path fill-rule="evenodd" clip-rule="evenodd" d="M15.4529 2.90685L15.7305 2.93609L15.8508 2.68221L16.2005 1.9321L16.8503 2.26883L17.1019 2.39777L18.0033 1.50189L18.7058 2.19883L18.907 2.39777L19.159 2.26883L19.8049 1.9321L20.1599 2.68221L20.2775 2.93609L20.5551 2.90685L20.8208 2.87495C20.6992 3.14921 20.6095 3.41017 20.5454 3.62594C19.8442 3.23427 18.9331 3.01141 18.0033 3.01141C17.078 3.01141 16.1678 3.23427 15.4639 3.62594C15.3989 3.41017 15.3101 3.14921 15.1885 2.87495L15.4529 2.90685ZM18.0033 3.40264C19.2474 3.40264 20.2425 3.81602 20.7925 4.25598C20.7925 4.25598 20.9556 3.27061 21.5131 2.40131L20.5113 2.51562L19.987 1.39954L18.9804 1.9197L18.0033 0.952484L17.0294 1.9197L16.0205 1.39954L15.4971 2.51562L14.4953 2.40131C15.0532 3.27061 15.2159 4.25598 15.2159 4.25598C15.7694 3.81602 16.7615 3.40264 18.0033 3.40264Z" fill="black"/>
  <path fill-rule="evenodd" clip-rule="evenodd" d="M33.7689 19.9775C33.7689 19.9775 33.3361 20.7329 32.3422 20.7329H32.3299C31.1371 20.7259 30.6561 19.9966 30.6561 19.9966C30.6561 19.9966 30.7251 20.9452 30.2958 22.2256C29.7781 23.7688 30.3002 24.8712 30.3002 24.8712C30.3002 24.8712 30.0213 24.9469 29.7007 24.9469C29.5783 24.9469 29.4501 24.9345 29.3294 24.9031C28.3329 24.666 28.0844 23.7569 28.0844 23.7569C28.0844 23.7569 28.1759 26.8269 24.6043 26.8269H24.5764C24.5764 26.8269 24.8912 26.398 24.984 25.1636C25.1538 22.8854 26.6927 22.5726 26.6927 22.5726C26.6927 22.5726 25.8713 22.4693 25.5154 22.1499C24.9588 21.6439 24.9982 21.0599 24.9982 21.0599C26.2546 21.0422 27.0782 20.6133 27.7056 19.8862C28.3851 19.0985 28.4969 18.25 28.4969 18.25C28.4969 18.25 27.8209 18.8641 26.5146 18.8641C26.3996 18.8641 26.2767 18.8583 26.1507 18.8464C25.5322 18.7959 25.1052 18.4024 25.1052 18.4024C26.4655 17.5278 27.4195 16.0028 26.5734 13.7064C25.8952 11.8654 24.2665 10.4906 22.6263 9.4547C22.0808 9.11354 21.7766 8.73339 21.7766 8.40685C21.7766 7.63769 22.8682 7.61287 23.3151 7.0967C23.8319 6.49591 23.5079 5.52205 23.0605 4.93543C23.0605 4.93543 23.2112 4.90485 23.4491 4.90485C23.9208 4.90485 24.7378 5.0236 25.4093 5.72143C26.3006 6.64566 25.931 7.65275 25.931 7.65275L26.1697 7.69927C26.3125 7.7294 26.4549 7.73516 26.6025 7.74269C26.6344 7.74269 26.6671 7.74447 26.6985 7.74447C27.9938 7.74447 28.5729 6.38735 28.5729 6.38735C28.5729 6.38735 29.9496 8.08474 27.9222 9.41527C27.5734 9.64256 27.4195 9.8539 27.4598 10.0785L27.4916 10.2261L27.6357 10.2518C29.1052 10.651 29.8488 11.6674 30.7569 12.822C32.1362 14.5788 34.0868 14.6355 34.3273 14.6355H34.3533C34.3533 14.6355 33.9086 16.044 32.5965 16.044C32.5743 16.044 32.5558 16.044 32.5341 16.0426C31.9315 16.0209 31.6221 15.7897 31.6221 15.7897C31.6221 15.7897 31.3873 18.9868 33.7689 19.9775ZM32.5965 16.4751C34.2048 16.4751 34.7433 14.8353 34.7654 14.7648L34.9453 14.1866L34.3423 14.2057H34.3401C34.1274 14.2057 32.3524 14.1583 31.0942 12.5557L30.9753 12.4068C30.153 11.3594 29.3736 10.3625 27.9792 9.90796C28.0194 9.87118 28.0774 9.82688 28.1565 9.77504C28.8966 9.28766 29.3267 8.69528 29.4346 8.00765C29.5929 6.97353 28.9341 6.14854 28.9054 6.11487L28.4576 5.55971L28.1777 6.2181C28.1587 6.25931 27.6888 7.31336 26.6985 7.31336H26.6246C26.557 7.30982 26.492 7.30716 26.4288 7.30184C26.4633 6.83175 26.3779 6.10423 25.7192 5.42103C24.9274 4.59958 23.9566 4.47641 23.4491 4.47641C23.1776 4.47641 22.9972 4.51008 22.9774 4.51186L22.3014 4.64655L22.7183 5.19772C23.0459 5.62262 23.3425 6.40685 22.9906 6.81624C22.8779 6.94695 22.6467 7.0524 22.4252 7.15873C21.9698 7.3683 21.3474 7.66206 21.3474 8.40685C21.3474 8.88891 21.7209 9.39356 22.3978 9.82244C24.4005 11.0847 25.6361 12.402 26.1697 13.8561C26.9956 16.0927 25.9182 17.3683 24.8722 18.0409L24.4027 18.343L24.8138 18.7214C24.8691 18.7702 25.3709 19.2137 26.1136 19.2775C26.2542 19.2868 26.3886 19.2943 26.5146 19.2943C26.9898 19.2943 27.3952 19.2194 27.7246 19.1189C27.6344 19.2775 27.5221 19.4401 27.3824 19.6031C26.7847 20.2974 26.049 20.6133 24.9911 20.6306L24.5981 20.6368L24.568 21.032C24.564 21.1118 24.5349 21.8446 25.2263 22.4675C25.3324 22.5641 25.4602 22.6434 25.5946 22.7081C25.1251 23.1317 24.6485 23.8694 24.5561 25.1326C24.4778 26.1871 24.2272 26.5774 24.2241 26.5814L23.7899 27.246L24.5751 27.2567C25.8722 27.2567 26.8656 26.8982 27.5539 26.1871C27.9606 25.7666 28.1936 25.2917 28.3307 24.8712C28.5566 25.0639 28.8479 25.2332 29.2281 25.3231C29.3723 25.3568 29.5296 25.3754 29.7007 25.3754C30.0672 25.3754 30.374 25.2974 30.4081 25.289L30.9094 25.1556L30.6879 24.6869C30.6716 24.6492 30.2534 23.7077 30.7034 22.3656C30.897 21.7848 30.9961 21.2651 31.0443 20.8601C31.3599 21.0249 31.783 21.1609 32.3294 21.1627C33.5704 21.1627 34.1177 20.2336 34.142 20.1946L34.3865 19.7679L33.9333 19.581C32.4545 18.9656 32.1269 17.3129 32.0615 16.4184C32.195 16.4445 32.348 16.468 32.5204 16.4729L32.5965 16.4751Z" fill="black"/>
  <path fill-rule="evenodd" clip-rule="evenodd" d="M30.7888 9.4586C31.0886 9.4586 31.4378 9.56095 31.7681 9.90299C32.8048 10.9575 33.769 11.0164 33.769 11.0164C33.5939 11.4054 33.0859 11.7466 32.5598 11.7466C32.4383 11.7466 32.3158 11.728 32.1951 11.6859C31.4816 11.4449 31.2265 10.3731 29.974 9.70494C29.974 9.70494 30.3233 9.4586 30.7888 9.4586ZM29.7698 10.086C30.3697 10.4063 30.7194 10.8356 31.0258 11.2162C31.3273 11.588 31.6124 11.9451 32.0603 12.094C32.219 12.1485 32.3879 12.1746 32.5598 12.1746C33.2305 12.1746 33.9051 11.763 34.1607 11.1928L34.418 10.6216L33.7955 10.5844C33.7663 10.584 32.9657 10.5104 32.0758 9.59905C31.7093 9.22466 31.2658 9.02838 30.7888 9.02838C30.2057 9.02838 29.7733 9.32036 29.7256 9.35049L29.154 9.75412L29.7698 10.086Z" fill="black"/>
  <path fill-rule="evenodd" clip-rule="evenodd" d="M30.0512 15.7803V15.8025C29.6905 12.8827 27.575 10.7741 25.2209 9.49279C25.0034 9.37582 24.8018 9.27658 24.6072 9.18176C25.3234 9.29341 26.4778 9.30671 27.369 8.53223C27.369 8.53223 26.0056 9.5371 23.2138 8.62438C23.9861 9.12682 25.4879 9.83617 26.8597 10.985C30.2868 14.0036 27.835 16.9478 27.835 16.9478C29.0667 15.6594 29.1179 14.2792 28.7554 13.1521C29.404 14.2345 29.8187 15.5473 29.7541 17.1671C29.66 19.487 28.3872 21.4937 27.0485 23.1056C26.4053 23.888 26.2616 24.8495 26.2616 24.8495C26.2616 24.8495 26.5211 24.001 27.2656 23.1281C28.7006 21.4445 29.9274 19.6962 30.0883 17.176C30.2364 17.6337 30.8479 18.9044 31.8174 19.3834C31.8174 19.3834 30.599 18.6474 30.0512 15.7803Z" fill="black"/>
  <path fill-rule="evenodd" clip-rule="evenodd" d="M11.405 26.8269C7.83288 26.8269 7.92395 23.7569 7.92395 23.7569C7.92395 23.7569 7.67461 24.666 6.67945 24.9031C6.56008 24.9345 6.43276 24.9469 6.30853 24.9469C5.98801 24.9469 5.71038 24.8712 5.71038 24.8712C5.71038 24.8712 6.22984 23.7688 5.71215 22.2256C5.2842 20.9456 5.35361 19.9966 5.35361 19.9966C5.35361 19.9966 4.87349 20.7258 3.67939 20.7329H3.66746C2.67451 20.7329 2.24082 19.9775 2.24082 19.9775C4.62061 18.9868 4.38763 15.7896 4.38763 15.7896C4.38763 15.7896 4.07816 16.0209 3.4747 16.0426C3.4526 16.044 3.43315 16.044 3.41237 16.044C2.09935 16.044 1.6546 14.6355 1.6546 14.6355H1.68113C1.92384 14.6355 3.87215 14.5783 5.2506 12.822C6.1591 11.6669 6.90359 10.6514 8.3709 10.2518L8.51812 10.2256L8.54951 10.0785C8.59018 9.85389 8.43678 9.64255 8.08796 9.41526C6.06096 8.08473 7.43764 6.38779 7.43764 6.38779C7.43764 6.38779 8.01325 7.74445 9.31213 7.74445C9.34351 7.74445 9.37313 7.74312 9.40673 7.74312C9.55262 7.73515 9.69675 7.72939 9.8391 7.69926L10.0778 7.65274C10.0778 7.65274 9.70692 6.64565 10.6008 5.72141C11.2724 5.02359 12.0885 4.90484 12.5602 4.90484C12.7994 4.90484 12.9479 4.93541 12.9479 4.93541C12.5014 5.52203 12.1778 6.49589 12.6942 7.09669C13.1411 7.61286 14.2313 7.63768 14.2313 8.40684C14.2313 8.73338 13.9276 9.11353 13.3829 9.45469C11.7414 10.4906 10.1132 11.8654 9.43547 13.7064C8.59018 16.0032 9.54422 17.5278 10.9063 18.4024C10.9063 18.4024 10.4779 18.7958 9.85855 18.8464C9.73256 18.8583 9.61054 18.8641 9.49338 18.8641C8.18832 18.8641 7.5128 18.25 7.5128 18.25C7.5128 18.25 7.62509 19.0985 8.30061 19.8867C8.93192 20.6133 9.75422 21.0422 11.0111 21.0599C11.0111 21.0599 11.0509 21.6439 10.4952 22.1494C10.1384 22.4693 9.31655 22.5725 9.31655 22.5725C9.31655 22.5725 10.8568 22.8853 11.0261 25.1632C11.1181 26.398 11.4306 26.8269 11.4306 26.8269H11.405ZM11.7848 26.5814C11.7834 26.5774 11.5341 26.1871 11.4541 25.1326C11.3608 23.869 10.8842 23.1317 10.4134 22.7081C10.5495 22.6434 10.6755 22.5641 10.7816 22.4675C11.4731 21.8446 11.4439 21.1118 11.439 21.032L11.4125 20.6368L11.0164 20.6306C9.96156 20.6133 9.22459 20.2974 8.62688 19.6031C8.48806 19.4401 8.37577 19.2775 8.2847 19.1188C8.61362 19.2194 9.01636 19.2943 9.49338 19.2943C9.62115 19.2943 9.75422 19.2868 9.89481 19.2775C10.6375 19.2137 11.1402 18.7706 11.1959 18.7214L11.607 18.343L11.138 18.0409C10.088 17.3683 9.01504 16.0927 9.8391 13.8561C10.3732 12.402 11.607 11.0847 13.6128 9.82243C14.2897 9.39355 14.6601 8.88889 14.6601 8.40684C14.6601 7.66204 14.0394 7.36829 13.5841 7.15872C13.3622 7.05238 13.1309 6.94693 13.0186 6.81623C12.6659 6.40684 12.9629 5.62261 13.2905 5.19771L13.7105 4.64654L13.0306 4.51184C13.0107 4.50963 12.8325 4.4764 12.5602 4.4764C12.0527 4.4764 11.0836 4.59957 10.2922 5.42102C9.63264 6.10467 9.54599 6.83174 9.58003 7.30183C9.51637 7.30715 9.45227 7.30981 9.38463 7.31335H9.31213C8.31918 7.31335 7.85012 6.2593 7.83199 6.21809L7.55303 5.5597L7.10077 6.11486C7.07557 6.14853 6.41508 6.97352 6.576 8.00763C6.68254 8.69527 7.11359 9.28765 7.85321 9.77503C7.93367 9.82686 7.98982 9.87117 8.03005 9.90794C6.63391 10.3625 5.85539 11.3594 5.03309 12.4068L4.91461 12.5557C3.65817 14.1583 1.87918 14.2057 1.66654 14.2057L1.06042 14.1866L1.24478 14.7648C1.26644 14.8353 1.8027 16.4751 3.41237 16.4751L3.48974 16.4729C3.66038 16.468 3.81291 16.4445 3.94863 16.4184C3.88232 17.3125 3.55384 18.9655 2.07459 19.581L1.62277 19.7679L1.86725 20.1946C1.89068 20.2336 2.43976 21.1627 3.68293 21.1627C4.22627 21.1609 4.64891 21.0249 4.96501 20.8605C5.01275 21.2651 5.11222 21.7848 5.3063 22.3656C5.75636 23.7077 5.33725 24.6492 5.32133 24.6869L5.09896 25.1556L5.60118 25.289C5.63434 25.2974 5.94336 25.3754 6.30853 25.3754C6.47918 25.3754 6.63701 25.3568 6.77981 25.3231C7.16045 25.2332 7.45488 25.0639 7.67858 24.8712C7.81475 25.2916 8.04862 25.7666 8.45446 26.1871C9.14457 26.8982 10.1371 27.2566 11.4337 27.2566L12.2193 27.246L11.7848 26.5814Z" fill="black"/>
  <path fill-rule="evenodd" clip-rule="evenodd" d="M4.24039 9.90257C4.57196 9.56096 4.92077 9.45817 5.22228 9.45817C5.68515 9.45817 6.03574 9.70496 6.03574 9.70496C4.78461 10.3731 4.52642 11.4449 3.812 11.6863C3.69396 11.7284 3.5715 11.7462 3.44948 11.7462C2.92383 11.7462 2.41498 11.4054 2.24124 11.0164C2.24124 11.0164 3.205 10.9575 4.24039 9.90257ZM3.44948 12.1746C3.6219 12.1746 3.79034 12.1489 3.94949 12.0944C4.39822 11.9451 4.68337 11.5884 4.98443 11.2163C5.29257 10.8361 5.63829 10.4063 6.23866 10.086L6.85626 9.75414L6.28287 9.35006C6.23512 9.31993 5.80496 9.02884 5.22228 9.02884C4.74393 9.02884 4.30007 9.22467 3.93402 9.59907C3.04275 10.5109 2.24433 10.584 2.21559 10.5849L1.59401 10.6217L1.8491 11.1932C2.10596 11.763 2.77927 12.1746 3.44948 12.1746Z" fill="black"/>
  <path fill-rule="evenodd" clip-rule="evenodd" d="M6.2555 17.1671C6.18875 15.5473 6.60387 14.2345 7.25331 13.1521C6.89123 14.2792 6.94031 15.6594 8.17375 16.9483C8.17375 16.9483 5.72101 14.0036 9.15034 10.985C10.5213 9.83617 12.0217 9.12682 12.7941 8.62438C10.0031 9.5371 8.64016 8.53223 8.64016 8.53223C9.53054 9.30671 10.6853 9.29341 11.401 9.18176C11.2074 9.27658 11.004 9.37538 10.7879 9.49279C8.43282 10.7741 6.31872 12.8827 5.9562 15.8025V15.7803C5.40933 18.6474 4.1918 19.3834 4.1918 19.3834C5.16043 18.9044 5.77052 17.6337 5.91907 17.176C6.08087 19.6962 7.30769 21.4445 8.74229 23.1281C9.48677 24.001 9.74893 24.8495 9.74893 24.8495C9.74893 24.8495 9.60349 23.888 8.95714 23.1056C7.62069 21.4941 6.34923 19.487 6.2555 17.1671Z" fill="black"/>
  <path fill-rule="evenodd" clip-rule="evenodd" d="M17.1973 11.2597V11.8388C17.3972 11.5955 17.7816 11.6452 17.7816 11.6452V12.4799C17.7816 12.4799 17.7687 12.8906 17.6228 13.0683H18.4565C18.3123 12.8906 18.2982 12.4799 18.2982 12.4799V11.6452C18.2982 11.6452 18.6838 11.5955 18.882 11.8388V11.2597H17.1973Z" fill="black"/>
  <path fill-rule="evenodd" clip-rule="evenodd" d="M16.84 7.82583C17.1066 8.03762 17.2606 8.07306 17.2654 8.07616L17.3698 8.12446V7.57949L16.3902 7.16699C16.3902 7.16699 16.3986 7.4829 16.84 7.82583Z" fill="black"/>
  <path fill-rule="evenodd" clip-rule="evenodd" d="M19.1679 7.82583C19.6106 7.4829 19.619 7.16699 19.619 7.16699L18.6394 7.57949V8.12446L18.7429 8.07616C18.7482 8.07306 18.9016 8.03762 19.1679 7.82583Z" fill="black"/>
  <path fill-rule="evenodd" clip-rule="evenodd" d="M18.0035 6.37389L15.6449 5.43991C15.8456 4.96405 16.7705 4.55909 18.0035 4.55776C19.2383 4.55909 20.1631 4.96405 20.363 5.43991L18.0035 6.37389ZM19.7622 9.29945L18.1768 10.1368V6.74651L20.328 6.01456L19.7622 9.29945ZM20.7441 10.1993L21.4691 10.6211H21.4793L21.6614 10.7279C21.252 10.8413 20.9395 11.0465 20.6769 11.3158C20.6671 11.3243 20.6587 11.334 20.6481 11.3442C20.588 11.4084 20.5283 11.4776 20.4708 11.5493C20.4607 11.5626 20.4492 11.5768 20.4372 11.5928C20.3815 11.665 20.328 11.7394 20.2776 11.8161C20.2692 11.8294 20.2595 11.8427 20.2507 11.8555C20.191 11.9454 20.1331 12.0411 20.076 12.1404C19.5597 13.0318 18.7361 13.5644 18.0035 13.5657C17.2718 13.5644 16.4478 13.0318 15.9323 12.1404C15.8761 12.0438 15.8196 11.9503 15.7599 11.8595C15.7479 11.8427 15.7373 11.8249 15.7263 11.8103C15.6759 11.7363 15.6246 11.6637 15.5733 11.5954C15.5601 11.5768 15.5481 11.5626 15.5349 11.5467C15.4787 11.4776 15.4212 11.4093 15.3629 11.3464C15.3505 11.3362 15.3421 11.3243 15.3315 11.3141C15.0676 11.0442 14.7559 10.8413 14.3461 10.7279L14.53 10.6211H14.5384L15.2647 10.1993L16.0097 9.77176L18 10.8577L18.0035 10.8533L18.0093 10.8577L19.9991 9.77176L20.7441 10.1993ZM23.604 13.2153C23.4417 13.6446 23.3073 14.1094 23.3073 14.5715L23.3086 17.5551C22.6866 17.4505 22.6132 16.7793 22.6106 16.7501L22.5991 16.6136L22.4651 16.6016C22.195 16.5755 22.0155 16.4612 21.8643 16.3141C21.5593 16.0084 21.5588 15.513 21.5593 15.5086C21.5549 15.5338 21.2237 15.9991 21.6084 16.5073C21.7702 16.7213 22.0049 16.8533 22.3082 16.9051C22.3794 17.2773 22.6561 17.8032 23.3086 17.8834V19.3438H21.4731C20.6269 18.8715 20.9854 18.0411 21.0018 18.0053L21.0734 17.848L20.9116 17.7864C19.9947 17.4457 20.2476 16.5294 20.2595 16.49L20.2967 16.3562L20.1715 16.2972C19.4151 15.9454 19.5172 14.9986 19.5274 14.9587C19.2944 15.1484 19.2109 15.5338 19.3709 15.9122C19.2843 16.0119 19.168 16.1315 19.0402 16.264C18.2564 16.0637 18.2321 15.342 18.2321 15.3088L18.2303 15.1975L18.1273 15.1577C17.8214 15.0442 17.6114 14.8737 17.5075 14.645C17.3916 14.3916 17.4323 14.1262 17.4642 13.9982C17.5539 14.019 17.6432 14.0327 17.7285 14.0403C17.8169 14.0491 17.9071 14.0549 17.9982 14.0549H18.0106C18.1012 14.0549 18.191 14.0491 18.2794 14.0403C18.7679 13.9915 19.3143 13.7815 19.8842 13.2153H23.604ZM21.3104 26.2175L21.5155 25.147C21.5261 25.0841 21.5394 25.0106 21.5482 24.949C21.6066 24.9734 21.6671 24.9929 21.7335 25.0053C21.8104 25.0199 21.8807 25.0274 21.9448 25.0274C22.2578 25.0274 22.4404 24.8626 22.5615 24.7217L22.7184 24.5383L22.5902 24.3367C22.5787 24.3167 22.294 23.8661 22.0756 23.5578C22.0323 23.4971 21.9916 23.4368 21.9501 23.3717C21.7012 22.9986 21.39 22.5312 20.7653 22.5312L20.7096 22.5325C20.607 22.5392 20.5186 22.5595 20.447 22.5866C20.2507 22.4948 20.0482 22.447 19.8378 22.447C19.5791 22.447 19.3625 22.5183 19.2175 22.5675C19.1759 22.5795 19.1388 22.5928 19.1096 22.5985L17.9425 22.4833C17.9279 22.4802 17.8806 22.4523 17.8222 22.3836V22.3779L18.0747 22.2764C18.0035 21.4333 17.1958 20.9149 16.7457 20.739C16.7263 20.6548 16.6856 20.5706 16.6149 20.5019L16.3642 20.2636L16.1436 20.5285L16.0353 20.6632L14.4009 19.9906L15.4641 21.3283L15.0446 21.9654C14.8912 22.1284 15.0605 22.2928 15.0605 22.2928L15.4942 22.5919L15.9433 22.424C15.9588 22.424 15.9725 22.4275 15.988 22.4293C15.9659 22.4975 15.9376 22.766 15.919 22.8409L15.1392 22.6876L14.32 23.151C13.8987 23.4612 13.8412 23.9738 13.9977 24.3252L14.0883 24.5241L14.2174 24.8054L14.5043 24.6867C14.5083 24.6854 14.5123 24.684 14.5149 24.6818C14.4119 25.0119 14.4539 25.3256 14.6374 25.5312L14.8116 25.7505L15.0432 26.0438L15.2974 25.77C15.3717 25.6956 15.6149 25.4231 15.6891 25.19L15.7444 25.0119L15.6206 24.875L15.5998 24.8502L15.7395 24.6194L16.7572 24.8599L16.9867 24.9127L17.1083 24.7111L17.1746 24.6016C17.1874 24.5781 17.1901 24.5746 17.2374 24.5746C17.2736 24.5746 17.3094 24.5781 17.3483 24.587C17.7325 24.6597 18.0866 24.6956 18.401 24.6956C18.706 24.6956 18.8886 24.684 19.1057 24.6118C19.1057 24.6118 19.6521 25.2339 19.6711 25.2578L19.336 26.2928L19.3214 26.3553C18.6874 26.4067 18.3788 26.5462 18.0057 26.9193C17.4642 26.381 17.0804 26.3243 15.6246 26.3243C13.8819 26.3243 12.7006 25.3003 12.7006 23.6645V19.6659H23.3086L23.3109 23.6645C23.3109 24.9902 22.5341 25.9158 21.3104 26.2175ZM14.7767 23.9565L14.8319 24.0948C14.7952 24.2157 14.3814 24.3867 14.3814 24.3867L14.2921 24.1905C14.1971 23.9813 14.2174 23.6287 14.5057 23.4129L15.1768 23.0035L15.8885 23.1546C15.8753 23.381 16.0101 23.5502 16.0101 23.5502L15.2647 23.4067L14.8187 23.7155C14.7426 23.7687 14.7373 23.8661 14.7767 23.9565ZM21.1981 25.0868L20.9695 26.2826C20.8227 26.3034 20.6689 26.3141 20.5097 26.3203L20.7511 25.171C20.8227 24.8294 19.9076 24.723 19.4553 24.0513C19.2347 24.2999 18.8192 24.3743 18.401 24.3743C18.0199 24.3743 17.6392 24.3136 17.4076 24.2676C17.3488 24.2582 17.2926 24.2516 17.2374 24.2516C17.1038 24.2516 16.9818 24.2933 16.8974 24.4346L16.8311 24.5471L15.5839 24.2529L15.2736 24.7678C15.2302 24.8515 15.2267 24.9215 15.2974 24.9995L15.3814 25.0917C15.3235 25.2738 15.064 25.5493 15.064 25.5493L14.8788 25.3172C14.732 25.1528 14.7559 24.8515 14.9088 24.5728L15.4035 23.7359L16.4602 23.8887L16.2961 23.5139C16.0755 23.0177 16.412 22.3872 16.4478 22.0239C16.4354 22.1337 16.3346 22.1586 16.2179 22.1586C16.1113 22.1586 15.9924 22.1382 15.9133 22.1382C15.8819 22.1382 15.8554 22.1413 15.8412 22.1519L15.5547 22.326L15.3293 22.1258C15.3019 22.0877 15.2935 21.9973 15.3593 21.9299L15.8819 21.3424L15.2647 20.6193L16.129 21.0549L16.3934 20.7341C16.4659 20.8054 16.4341 20.9915 16.4341 20.9915C16.7037 20.9982 17.4606 21.4173 17.5008 22.3965C17.5031 22.4266 17.5031 22.4598 17.5031 22.4922C17.5031 22.4922 17.5101 22.5046 17.5234 22.5245C17.5764 22.5985 17.7245 22.7873 17.9116 22.8046L19.1065 22.9233H19.1114C19.2423 22.9233 19.5031 22.7691 19.8378 22.7691C20.0203 22.7691 20.2228 22.8156 20.439 22.9521C20.439 22.9521 20.5482 22.8657 20.7242 22.8568C20.7374 22.8551 20.7529 22.8551 20.7653 22.8551C21.3011 22.8551 21.5239 23.3407 21.8117 23.7439C22.0279 24.0513 22.317 24.5068 22.317 24.5068C22.2105 24.6335 22.1115 24.7044 21.9448 24.7044C21.8992 24.7044 21.8475 24.7009 21.7909 24.6894C21.2158 24.583 21.1331 23.3987 20.8051 23.3052C20.7874 23.3003 20.7697 23.2986 20.7529 23.2986C20.6472 23.2986 20.6013 23.3925 20.6013 23.3925C20.7511 23.7966 20.6632 23.9596 20.825 24.2707C20.9452 24.5015 21.1596 24.6911 21.2476 24.7811C21.2476 24.7811 21.2237 24.9561 21.1981 25.0868ZM20.0982 26.3283C19.9372 26.3283 19.7891 26.3305 19.6561 26.3358L20.0062 25.2432C20.0606 25.0917 19.7843 24.8972 19.6698 24.7266C19.8422 24.8351 20.2891 25.073 20.504 25.1679C20.4823 25.2033 20.0982 26.3283 20.0982 26.3283ZM14.8934 16.4824L14.9433 14.583L15.3686 14.132L15.6356 14.6925L15.1091 16.5157L14.8934 16.4824ZM15.1993 17.0708C15.2687 17.217 15.3938 17.3145 15.4818 17.3699C15.4787 17.5073 15.4659 17.7195 15.4301 17.9073C15.4212 17.9494 15.4106 17.988 15.3991 18.0265C15.3929 18.0509 15.3859 18.0708 15.381 18.0868C15.2506 18.0868 14.9959 18.0708 14.7868 17.9946C14.5556 17.9091 14.2108 17.4842 14.2904 17.0154C14.3903 16.9543 14.6219 16.8236 14.839 16.8236C15.0057 16.8236 15.1197 16.9025 15.1993 17.0708ZM20.1256 17.5812C19.7984 17.8227 18.9558 18.4395 18.6499 18.6535L15.7077 18.1236C15.7148 18.0974 15.7219 18.0708 15.728 18.0451C15.7665 17.8918 15.8063 17.6831 15.8081 17.4372L18.2811 17.4771L18.3284 17.4288C18.366 17.3912 19.1494 16.6326 19.5486 16.1962C19.6437 16.3158 19.7622 16.4297 19.9182 16.5294C19.8652 16.8201 19.8877 17.233 20.1256 17.5812ZM16.1246 13.2153C16.4783 13.5675 16.8244 13.7864 17.1534 13.9069C17.1109 14.077 17.0548 14.4279 17.213 14.7775C17.3426 15.0593 17.5773 15.2764 17.9169 15.4213C17.954 15.77 18.1742 16.2941 18.782 16.525C18.5155 16.7944 18.2564 17.0482 18.1516 17.1506L15.6838 17.1116C15.6281 17.0837 15.5322 17.0203 15.4898 16.9313C15.4849 16.9184 15.4769 16.9118 15.4716 16.8994L15.8744 16.9645C15.8828 16.9658 15.8916 16.9658 15.9 16.9658C15.9778 16.9658 16.0455 16.9118 16.0583 16.8316C16.0716 16.7425 16.0123 16.6601 15.9252 16.6464L15.4301 16.568L15.9792 14.6654L15.4588 13.5675L14.6246 14.4514L14.5733 16.4297L14.0127 16.3402C13.9261 16.3234 13.8434 16.3867 13.8279 16.4749C13.8147 16.5617 13.8739 16.6446 13.9619 16.6601L14.1971 16.696C14.1131 16.7438 14.0574 16.782 14.0507 16.7873L14.0034 16.8205L13.9902 16.8794C13.854 17.4346 14.1621 17.9614 14.4955 18.1971L14.4836 18.2671C14.4698 18.3526 14.4893 18.4359 14.5406 18.5055C14.5892 18.5768 14.663 18.6193 14.747 18.6344C14.7643 18.6375 14.7828 18.6388 14.7988 18.6388C14.9433 18.6388 15.0693 18.5387 15.1047 18.3925C15.2285 18.4071 15.3421 18.4102 15.4199 18.4102H15.4862L18.7237 18.9968L18.7789 18.9601C19.0367 18.7793 20.0203 18.0611 20.3426 17.8232C20.4315 17.8998 20.5305 17.9689 20.6503 18.0265C20.5456 18.377 20.5394 18.9171 20.9518 19.3438H12.7006V14.5715C12.7006 14.1094 12.5657 13.6446 12.4061 13.2153H16.1246ZM15.6785 6.01456L17.8315 6.74651V10.1368L16.2462 9.29945L15.6785 6.01456ZM20.9315 5.60561C20.9315 4.77841 19.542 4.03406 18.0084 4.03406H18C16.4663 4.03406 15.0768 4.77841 15.0768 5.60561L15.1073 5.80898L15.7196 9.3318L15.1047 9.6898L13.5132 10.6211H13.5189C13.5189 10.6211 13.1608 10.8054 12.995 10.9189C12.3889 11.3407 12.2603 11.9561 12.6122 12.2104C12.6988 11.7084 13.0945 11.1843 13.8359 11.1843C14.3695 11.1843 14.7767 11.4603 15.1047 11.8741C15.1896 11.9787 15.2696 12.0903 15.3443 12.2104C15.4363 12.3619 15.5291 12.4948 15.6206 12.6229H11.5211C11.8226 13.2299 12.1091 13.8728 12.1091 14.5715V23.6645C12.1091 25.8657 13.7979 26.9162 15.6246 26.9162C17.0366 26.9162 17.2267 26.8515 18.0057 27.6295C18.7812 26.8515 18.9717 26.9162 20.3846 26.9162C22.2127 26.9162 23.8993 25.8657 23.8993 23.6645V14.5715C23.8993 13.8728 24.1853 13.2299 24.4882 12.6229H20.3873C20.4788 12.4948 20.5712 12.3619 20.6632 12.2104C20.7392 12.0903 20.8188 11.9787 20.9019 11.8741C21.233 11.4585 21.6389 11.1843 22.1729 11.1843C22.9134 11.1843 23.3086 11.7084 23.3966 12.2104C23.7485 11.9561 23.6212 11.3407 23.0116 10.9189C22.8484 10.8054 22.4899 10.6211 22.4899 10.6211H22.4956L20.9019 9.6898L20.2891 9.3318L20.9019 5.80898L20.9315 5.60561Z" fill="black"/>
</svg>
