<svg width="40" height="40" viewBox="0 0 40 40" fill="none" xmlns="http://www.w3.org/2000/svg">
<path d="M0 20C0 8.95431 8.95431 0 20 0C31.0457 0 40 8.95431 40 20C40 31.0457 31.0457 40 20 40C8.95431 40 0 31.0457 0 20Z" fill="#FFDD2D"/>
<path fill-rule="evenodd" clip-rule="evenodd" d="M35.2355 19.0967L35.6413 17.7945L34.2982 17.8371C34.1848 17.8371 33.3601 17.8131 32.5597 17.2319C32.6197 17.237 32.6789 17.2459 32.7404 17.2459C33.564 17.2459 34.3616 16.7489 34.6807 16.0375L35.2583 14.7531C34.5334 14.7628 33.8711 14.6709 33.8711 14.6709C33.8657 14.6705 33.3435 14.6027 32.74 13.9843C32.3071 13.5416 31.7714 13.307 31.1911 13.307C30.937 13.307 30.7099 13.3532 30.5142 13.4152C30.5451 13.3109 30.5734 13.2055 30.5908 13.0965C30.7749 11.8943 30.0035 10.9778 30.0032 10.9786L28.9928 9.72486L28.3665 11.1977C28.3645 11.2023 28.2059 11.5477 27.9235 11.716C27.8384 11.283 27.6284 10.7964 27.1804 10.3312C26.3352 9.45464 25.3066 9.32322 24.7685 9.32322C24.519 9.32322 24.3407 9.35074 24.2978 9.35772L23.0785 9.59808C23.1489 9.32516 23.299 8.84908 23.5728 8.42147L24.2455 7.37123L22.5528 7.56391L22.0131 6.41637L20.9691 6.95603L20.0031 6L19.0403 6.95603L17.9935 6.41637L17.4555 7.56391L15.7631 7.37046L16.4369 8.42185C16.7112 8.84908 16.8605 9.32399 16.9301 9.59615L15.7665 9.36625L15.7267 9.36005C15.6683 9.35074 15.4915 9.32322 15.2408 9.32322C14.7028 9.32322 13.6746 9.45464 12.8313 10.3308C12.3825 10.7956 12.1721 11.283 12.0862 11.716C11.8054 11.5493 11.6483 11.2093 11.6483 11.2093L11.0209 9.72796L9.995 10.9895C9.86928 11.1519 9.25112 12.0137 9.419 13.0981C9.43641 13.2062 9.46465 13.3109 9.49482 13.4152C9.30025 13.3528 9.07317 13.307 8.81941 13.307C8.23878 13.307 7.70301 13.5416 7.26937 13.9843C6.66746 14.6 6.14872 14.6698 6.15297 14.6698C6.15297 14.6698 5.60367 14.769 4.75418 14.7531L5.32863 16.0375C5.64854 16.7489 6.44658 17.2459 7.2686 17.2459C7.33049 17.2459 7.38968 17.237 7.45041 17.2319C6.65199 17.8131 5.82726 17.8371 5.72746 17.8375L4.36 17.7945L4.7743 19.0963C4.98319 19.7674 5.67949 20.8789 7.01329 20.9987C6.86823 21.6081 6.54677 22.2916 5.84041 22.5855L4.82111 23.0061L5.37698 23.9761C5.69032 24.4991 6.42685 25.1108 7.47478 25.1108C7.70146 25.11 7.92041 25.0872 8.13162 25.0422C8.18539 25.281 8.2527 25.5206 8.33239 25.7583C8.64418 26.6895 8.37533 27.3384 8.37262 27.3458L7.86935 28.4019L8.99233 28.6984C9.00625 28.7027 9.3455 28.7965 9.77025 28.7965C9.9625 28.7965 10.1474 28.7764 10.3196 28.7349C10.4499 28.7043 10.5756 28.6639 10.6963 28.6147C10.8418 28.876 11.0182 29.1144 11.224 29.328C11.9435 30.0681 12.9636 30.443 14.2548 30.443H14.2591L15.1813 30.431L13.2761 31.225L14.7225 31.9255C15.2482 32.1822 15.871 32.4857 16.5058 32.7179L16.3251 33.213L16.8234 33.441C16.8679 33.4611 17.8268 33.8907 19.4202 33.9822C19.4202 33.9822 19.8047 34 20.0167 34C20.2283 34 20.6085 33.981 20.6085 33.981C22.1915 33.8872 23.1427 33.4611 23.1872 33.441L23.687 33.2126L23.5048 32.7168C24.157 32.4776 24.8034 32.162 25.307 31.9154L26.7267 31.2242L24.8277 30.431L25.7538 30.443C27.047 30.443 28.0671 30.0677 28.7854 29.3269C28.9904 29.1152 29.1664 28.8772 29.3127 28.6147C29.4337 28.6639 29.5602 28.7043 29.691 28.7357C29.8627 28.7764 30.0473 28.7965 30.2395 28.7965C30.6569 28.7965 31 28.7039 31.0089 28.7008L32.1369 28.4019L31.6457 27.3652C31.6341 27.3384 31.3652 26.6895 31.677 25.7575C31.7563 25.5198 31.8232 25.2806 31.8778 25.0422C32.0894 25.0872 32.3102 25.11 32.5389 25.1108C33.8742 25.1108 34.5144 24.1695 34.6382 23.9652L35.1883 23.0053L34.1697 22.5862C33.4614 22.2916 33.1404 21.6085 32.9969 20.9994C34.3133 20.8847 35.0192 19.772 35.2355 19.0967Z" fill="white"/>
<path fill-rule="evenodd" clip-rule="evenodd" d="M20.0034 9.98822C18.9245 9.98938 18.1152 10.3433 17.9396 10.7605L20.0034 11.5769L22.0679 10.7605C21.893 10.3433 21.0838 9.98938 20.0034 9.98822Z" fill="white"/>
<path fill-rule="evenodd" clip-rule="evenodd" d="M20.0252 31.5967H19.9838C19.33 31.601 18.4291 31.4668 17.9962 31.3397L17.474 32.7547C17.8179 32.8776 18.9838 33.1129 20.0054 33.1129C21.0251 33.1129 22.1914 32.8776 22.5349 32.7547L22.0139 31.3397C21.5787 31.4668 20.6789 31.601 20.0252 31.5967Z" fill="white"/>
<path fill-rule="evenodd" clip-rule="evenodd" d="M23.9743 30.1888C23.5859 30.409 22.7187 30.7401 22.2146 30.8936L22.6378 32.0625C23.4181 31.8489 24.0625 31.5996 24.594 31.3321L23.7151 31.0394L23.9743 30.1888Z" fill="white"/>
<path fill-rule="evenodd" clip-rule="evenodd" d="M16.0343 30.1888L16.2943 31.0394L15.4146 31.3321C15.9453 31.5996 16.5925 31.8489 17.37 32.0625L17.794 30.8936C17.2907 30.7401 16.4223 30.409 16.0343 30.1888Z" fill="white"/>
<path fill-rule="evenodd" clip-rule="evenodd" d="M20.0035 8.63508C20.817 8.63508 21.6143 8.83009 22.2278 9.17241C22.2839 8.98439 22.3624 8.75565 22.4688 8.51568L22.2363 8.54359L21.9934 8.56918L21.8905 8.34704L21.5798 7.6903L21.0147 7.98572L20.7942 8.09776L20.6182 7.92407L20.0035 7.31464L19.39 7.92407L19.2147 8.09776L18.9946 7.98572L18.426 7.6903L18.12 8.34704L18.0148 8.56918L17.7718 8.54359L17.5405 8.51568C17.6469 8.75565 17.7247 8.98439 17.7815 9.17241C18.3974 8.83009 19.1938 8.63508 20.0035 8.63508Z" fill="white"/>
<path fill-rule="evenodd" clip-rule="evenodd" d="M32.4211 16.2255C32.5267 16.262 32.6338 16.2782 32.7402 16.2782C33.2006 16.2782 33.645 15.9797 33.7978 15.639C33.7978 15.639 32.9545 15.5878 32.0474 14.6647C31.7584 14.3658 31.4528 14.2762 31.1906 14.2762C30.7832 14.2762 30.4776 14.4914 30.4776 14.4914C31.5735 15.0764 31.7971 16.0142 32.4211 16.2255Z" fill="white"/>
<path fill-rule="evenodd" clip-rule="evenodd" d="M7.2688 16.2783C7.37518 16.2783 7.48272 16.262 7.58601 16.2252C8.21151 16.0143 8.43704 15.0765 9.53139 14.4918C9.53139 14.4918 9.22502 14.2763 8.82 14.2763C8.55618 14.2763 8.25097 14.3658 7.96085 14.6651C7.05488 15.5878 6.21198 15.6394 6.21198 15.6394C6.36323 15.9798 6.80886 16.2783 7.2688 16.2783Z" fill="white"/>
<path fill-rule="evenodd" clip-rule="evenodd" d="M32.0904 22.9604C31.2428 22.5413 30.707 21.4294 30.5778 21.0289C30.437 23.2341 29.3632 24.7639 28.1079 26.237C27.4565 27.0008 27.229 27.7432 27.229 27.7432C27.229 27.7432 27.3547 26.9019 27.918 26.2173C29.0893 24.8073 30.2026 23.0511 30.2854 21.0212C30.3423 19.6038 29.979 18.4551 29.4115 17.508C29.7291 18.4942 29.6839 19.7019 28.6065 20.8293C28.6065 20.8293 30.7519 18.2531 27.7524 15.6118C26.5525 14.6066 25.2384 13.9859 24.5626 13.5463C27.0054 14.3449 28.1984 13.4656 28.1984 13.4656C27.4186 14.1433 26.4086 14.1317 25.7819 14.034C25.9521 14.1169 26.1289 14.2038 26.3188 14.3061C28.3787 15.4273 30.2297 17.2723 30.5453 19.8271V19.8077C31.0242 22.3164 32.0904 22.9604 32.0904 22.9604ZM32.7178 20.0372C32.7368 20.0384 32.753 20.0384 32.7723 20.0384C33.9205 20.0384 34.3096 18.8059 34.3096 18.8059H34.2872C34.0764 18.8059 32.3693 18.7563 31.1623 17.2192C30.3686 16.2085 29.7171 15.3199 28.4317 14.9702L28.3052 14.9477L28.2777 14.8186C28.2421 14.6221 28.3771 14.4371 28.6824 14.2383C30.4568 13.0741 29.2514 11.5888 29.2514 11.5888C29.2514 11.5888 28.745 12.7763 27.6116 12.7763C27.5841 12.7763 27.5555 12.7748 27.5273 12.7748C27.3988 12.7682 27.2743 12.7635 27.1493 12.7368L26.9405 12.6961C26.9405 12.6961 27.2638 11.8149 26.4836 11.0062C25.896 10.3956 25.1811 10.2917 24.7684 10.2917C24.5603 10.2917 24.4284 10.3184 24.4284 10.3184C24.8202 10.8317 25.1034 11.6838 24.6512 12.2095C24.2601 12.6612 23.305 12.6829 23.305 13.3563C23.305 13.6416 23.5707 13.9743 24.0481 14.2732C25.4836 15.1792 26.9087 16.3818 27.5017 17.993C28.2421 20.0023 27.4077 21.3367 26.2171 22.1016C26.2171 22.1016 26.5908 22.4463 27.1319 22.4905C27.2426 22.5009 27.3501 22.506 27.4503 22.506C28.5938 22.506 29.1852 21.9687 29.1852 21.9687C29.1852 21.9687 29.0874 22.7111 28.4928 23.4004C27.9435 24.0366 27.2236 24.4118 26.1238 24.4273C26.1238 24.4273 26.0894 24.9383 26.5761 25.381C26.8878 25.6602 27.6066 25.7509 27.6066 25.7509C27.6066 25.7509 26.26 26.0246 26.1115 28.0181C26.0306 29.0981 25.7552 29.4734 25.7552 29.4734H25.7792C28.9044 29.4734 28.8243 26.7872 28.8243 26.7872C28.8243 26.7872 29.0417 27.5827 29.9136 27.7901C30.0189 27.8176 30.1314 27.8285 30.2386 27.8285C30.519 27.8285 30.7631 27.7622 30.7631 27.7622C30.7631 27.7622 30.3063 26.7972 30.7593 25.4473C31.1349 24.3269 31.0745 23.4969 31.0745 23.4969C31.0745 23.4969 31.495 24.135 32.5395 24.1408H32.5499C33.4191 24.1408 33.7978 23.4806 33.7978 23.4806C31.7144 22.6134 31.9202 19.8159 31.9202 19.8159C31.9202 19.8159 32.1905 20.0182 32.7178 20.0372Z" fill="white"/>
<path fill-rule="evenodd" clip-rule="evenodd" d="M11.9005 26.237C10.6453 24.7639 9.57181 23.2341 9.42984 21.0289C9.30025 21.4294 8.76642 22.5413 7.91926 22.9604C7.91926 22.9604 8.98421 22.3164 9.46272 19.8077V19.8271C9.77954 17.2727 11.6301 15.4273 13.6904 14.3065C13.8792 14.2034 14.0575 14.1169 14.2266 14.0343C13.6003 14.1317 12.5903 14.1433 11.8108 13.4656C11.8108 13.4656 13.0038 14.3449 15.4459 13.5463C14.7701 13.9863 13.4572 14.6066 12.2572 15.6118C9.25692 18.2531 11.4027 20.8296 11.4027 20.8296C10.3238 19.7019 10.2805 18.4946 10.5977 17.508C10.0294 18.4551 9.66619 19.6038 9.72461 21.0212C9.80661 23.0511 10.9195 24.8069 12.0885 26.2177C12.6545 26.9019 12.7817 27.7428 12.7817 27.7428C12.7817 27.7428 12.5516 27.0008 11.9005 26.237ZM12.4027 25.7509C12.4027 25.7509 13.1218 25.6606 13.4339 25.3807C13.9202 24.9383 13.8854 24.4273 13.8854 24.4273C12.7856 24.4118 12.0661 24.0366 11.5137 23.4008C10.9226 22.7111 10.8244 21.9687 10.8244 21.9687C10.8244 21.9687 11.4155 22.506 12.5574 22.506C12.6599 22.506 12.7667 22.5009 12.8769 22.4905C13.4189 22.4463 13.7937 22.102 13.7937 22.102C12.6019 21.3367 11.7671 20.0027 12.5067 17.993C13.0997 16.3822 14.5244 15.1792 15.9607 14.2728C16.4373 13.9743 16.7031 13.6416 16.7031 13.3563C16.7031 12.6829 15.7491 12.6612 15.3584 12.2095C14.9062 11.6838 15.1894 10.8317 15.5805 10.3184C15.5805 10.3184 15.4501 10.2917 15.2408 10.2917C14.8285 10.2917 14.114 10.3956 13.5264 11.0062C12.7446 11.8149 13.0688 12.6961 13.0688 12.6961L12.8599 12.7368C12.7353 12.7631 12.6096 12.7682 12.4816 12.7752C12.4522 12.7752 12.4262 12.7763 12.3988 12.7763C11.2623 12.7763 10.7586 11.5892 10.7586 11.5892C10.7586 11.5892 9.55401 13.0741 11.3276 14.2383C11.6329 14.4371 11.7671 14.6221 11.7315 14.8186L11.704 14.9473L11.5752 14.9702C10.2917 15.3199 9.63989 16.2085 8.84495 17.2192C7.6388 18.7559 5.93403 18.8059 5.72166 18.8059H5.69845C5.69845 18.8059 6.0876 20.0384 7.2365 20.0384C7.25468 20.0384 7.2717 20.0384 7.29104 20.0372C7.81907 20.0182 8.08985 19.8159 8.08985 19.8159C8.08985 19.8159 8.2941 22.6134 6.21139 23.4802C6.21139 23.4802 6.59087 24.1412 7.4597 24.1412H7.47014C8.51498 24.135 8.93508 23.4969 8.93508 23.4969C8.93508 23.4969 8.87435 24.3273 9.2488 25.4473C9.70178 26.7976 9.24725 27.7626 9.24725 27.7626C9.24725 27.7626 9.49019 27.8285 9.77064 27.8285C9.87934 27.8285 9.99075 27.8176 10.0952 27.7901C10.966 27.5827 11.1841 26.7872 11.1841 26.7872C11.1841 26.7872 11.1044 29.4734 14.2301 29.4734H14.2525C14.2525 29.4734 13.979 29.0981 13.8985 28.0177C13.7504 26.0246 12.4027 25.7509 12.4027 25.7509Z" fill="white"/>
<path fill-rule="evenodd" clip-rule="evenodd" d="M19.2982 15.8521H20.7717V16.3588C20.5984 16.1459 20.2611 16.1894 20.2611 16.1894V16.9197C20.2611 16.9197 20.2735 17.2791 20.3996 17.4346H19.6704C19.798 17.2791 19.8093 16.9197 19.8093 16.9197V16.1894C19.8093 16.1894 19.4731 16.1459 19.2982 16.3588V15.8521ZM17.6929 15.9281C17.7443 15.9831 17.7946 16.0428 17.8434 16.1033C17.855 16.1172 17.8654 16.1297 17.877 16.1459C17.9219 16.2056 17.9672 16.2692 18.0109 16.334C18.0205 16.3468 18.0298 16.3623 18.0403 16.377C18.0925 16.4565 18.142 16.5383 18.1911 16.6228C18.6422 17.4028 19.3632 17.8688 20.0034 17.87C20.6444 17.8688 21.3647 17.4028 21.8169 16.6228C21.8668 16.5359 21.9175 16.4522 21.9697 16.3735C21.9775 16.3623 21.986 16.3506 21.9929 16.339C22.0378 16.2719 22.0842 16.2068 22.133 16.1436C22.1434 16.1297 22.1531 16.1172 22.1624 16.1056C22.2126 16.0428 22.2645 15.9823 22.3175 15.9261C22.3264 15.9172 22.3341 15.9087 22.3426 15.9013C22.5724 15.6656 22.8459 15.4861 23.2045 15.3869L23.0447 15.2934H23.0358L22.4014 14.9243L21.7496 14.5502L20.0081 15.5004L20.0034 15.4966L20.0004 15.5004L18.2584 14.5502L17.607 14.9243L16.9714 15.2934H16.9641L16.8032 15.3869C17.1618 15.4861 17.4345 15.6637 17.665 15.8998C17.6751 15.9087 17.6821 15.9191 17.6929 15.9281Z" fill="white"/>
<path fill-rule="evenodd" clip-rule="evenodd" d="M19.4497 12.6321V13.1089L19.3583 13.067C19.3541 13.0635 19.2198 13.0333 18.986 12.8476C18.6002 12.5479 18.5925 12.2711 18.5925 12.2711L19.4497 12.6321ZM19.8541 14.8694V11.9032L17.9694 11.2628L18.4663 14.137L19.8541 14.8694Z" fill="white"/>
<path fill-rule="evenodd" clip-rule="evenodd" d="M20.5603 12.6321L21.4175 12.2711C21.4175 12.2711 21.4101 12.5479 21.0227 12.8476C20.7898 13.0333 20.6555 13.0635 20.6508 13.067L20.5603 13.1089V12.6321ZM21.5429 14.137L22.0382 11.2628L20.1547 11.9032V14.8694L21.5429 14.137Z" fill="white"/>
<path fill-rule="evenodd" clip-rule="evenodd" d="M17.1891 21.7454C17.3722 21.8121 17.5951 21.826 17.7093 21.826C17.7135 21.8121 17.7197 21.7946 17.7251 21.7733C17.7352 21.7396 17.7449 21.7059 17.7518 21.669C17.784 21.5047 17.7952 21.319 17.7979 21.1988C17.7209 21.1503 17.6114 21.065 17.5502 20.9371C17.4806 20.7898 17.3803 20.7208 17.2348 20.7208C17.0452 20.7208 16.842 20.8351 16.7542 20.8886C16.6849 21.2988 16.9868 21.6706 17.1891 21.7454Z" fill="white"/>
<path fill-rule="evenodd" clip-rule="evenodd" d="M21.356 20.1722C21.0063 20.5537 20.3208 21.2174 20.2879 21.2503L20.2465 21.2922L18.0826 21.2581C18.081 21.4729 18.0462 21.6555 18.0126 21.7896C18.0072 21.8117 18.001 21.835 17.9952 21.8582L20.5692 22.3223C20.8368 22.1346 21.5738 21.595 21.8604 21.3837C21.6523 21.079 21.6326 20.7176 21.6794 20.4633C21.5424 20.3761 21.4388 20.2769 21.356 20.1722Z" fill="white"/>
<path fill-rule="evenodd" clip-rule="evenodd" d="M21.6492 17.5634C21.1505 18.0588 20.6724 18.243 20.2453 18.2852C20.1672 18.2934 20.0891 18.2984 20.0098 18.2984H19.9989C19.9192 18.2984 19.8403 18.2934 19.7633 18.2852C19.6883 18.2786 19.6102 18.2666 19.5316 18.2488C19.5038 18.3604 19.4682 18.593 19.5695 18.8144C19.6601 19.0145 19.8438 19.1633 20.1119 19.263L20.202 19.2982L20.2036 19.3955C20.2036 19.4242 20.2248 20.0554 20.9107 20.2306C21.0229 20.1151 21.1246 20.0104 21.2 19.9228C21.06 19.5921 21.1335 19.2544 21.337 19.0893C21.3281 19.1242 21.2387 19.9523 21.901 20.2601L22.0101 20.312L21.9776 20.4283C21.9667 20.4632 21.7459 21.265 22.5482 21.5631L22.6901 21.617L22.6271 21.755C22.6131 21.7856 22.2986 22.5125 23.0394 22.9258H24.6456V21.6476C24.0742 21.5778 23.8328 21.1176 23.7702 20.792C23.5044 20.7462 23.2994 20.6315 23.1582 20.4442C22.8213 19.9996 23.111 19.5921 23.1149 19.57C23.1141 19.5735 23.1149 20.0069 23.3818 20.2748C23.5145 20.4035 23.6707 20.5039 23.9079 20.5264L24.0247 20.5369L24.0348 20.6567C24.0367 20.6819 24.1009 21.2692 24.6456 21.3611L24.6444 18.7501C24.6444 18.3457 24.762 17.939 24.9036 17.5634H21.6492Z" fill="white"/>
<path fill-rule="evenodd" clip-rule="evenodd" d="M17.3259 18.7597L17.2822 20.4221L17.4711 20.4512L17.9324 18.8559L17.6982 18.3651L17.3259 18.7597Z" fill="white"/>
<path fill-rule="evenodd" clip-rule="evenodd" d="M18.3246 24.9146C18.2708 24.913 18.2314 24.8673 18.2349 24.8134C18.2391 24.7618 18.2828 24.7211 18.3358 24.7258C18.39 24.7277 18.4279 24.7754 18.4263 24.8262C18.4213 24.8789 18.3761 24.9192 18.3246 24.9146ZM22.4092 26.3862C22.4235 26.3862 22.4394 26.3882 22.4548 26.392C22.7419 26.4742 22.8142 27.5105 23.3175 27.6028C23.367 27.6132 23.4122 27.6163 23.4521 27.6163C23.5979 27.6163 23.6846 27.5543 23.7782 27.4434C23.7782 27.4434 23.5248 27.0449 23.3356 26.7755C23.0838 26.4234 22.8889 25.9982 22.4204 25.9982C22.4092 25.9982 22.3956 25.9982 22.384 25.9997C22.2301 26.0075 22.1349 26.0831 22.1349 26.0831C21.945 25.9633 21.7682 25.9229 21.6088 25.9229C21.3156 25.9229 21.0874 26.0579 20.9729 26.0579H20.9686L19.9226 25.9543C19.7594 25.9385 19.6298 25.7733 19.5834 25.7089C19.5718 25.6911 19.5652 25.681 19.5652 25.681C19.5652 25.6523 19.5652 25.6233 19.5636 25.5973C19.5284 24.7401 18.8662 24.3734 18.6302 24.3676C18.6302 24.3676 18.6581 24.2043 18.5946 24.1423L18.3633 24.423L17.607 24.0423L18.1471 24.6746L17.6898 25.1891C17.6322 25.2476 17.6395 25.3267 17.6635 25.3604L17.8608 25.5353L18.1115 25.3829C18.1238 25.3736 18.1471 25.3705 18.1745 25.3705C18.2438 25.3705 18.3478 25.3887 18.4411 25.3887C18.5436 25.3887 18.6314 25.367 18.6422 25.2709C18.6109 25.5888 18.3165 26.1408 18.5095 26.575L18.653 26.9026L17.7281 26.7693L17.2953 27.5016C17.1618 27.7454 17.1409 28.0091 17.2693 28.1529L17.431 28.3557C17.431 28.3557 17.6585 28.1145 17.7092 27.9556L17.6357 27.8745C17.5738 27.8063 17.5769 27.7454 17.6148 27.6722L17.8863 27.2209L18.9776 27.4787L19.0352 27.3802C19.1095 27.2566 19.2163 27.2201 19.3331 27.2201C19.3814 27.2201 19.4306 27.2259 19.482 27.2341C19.6847 27.274 20.0182 27.3279 20.3516 27.3279C20.7172 27.3279 21.0804 27.2624 21.2742 27.0449C21.6696 27.6322 22.4707 27.7257 22.4076 28.0242L22.1964 29.0306C22.3361 29.0244 22.4707 29.0155 22.5983 28.9977L22.7991 27.9509C22.8212 27.8365 22.842 27.6834 22.842 27.6834C22.7651 27.6047 22.5778 27.4388 22.4722 27.2368C22.331 26.9646 22.4076 26.8224 22.2761 26.4684C22.2761 26.4684 22.3167 26.3862 22.4092 26.3862Z" fill="white"/>
<path fill-rule="evenodd" clip-rule="evenodd" d="M16.8342 27.3384C16.8342 27.3384 17.1964 27.1891 17.2286 27.0829L17.1802 26.9619C17.1457 26.8828 17.1504 26.7976 17.2169 26.7514L17.6074 26.4804L18.2599 26.6064C18.2599 26.6064 18.1419 26.4579 18.1535 26.2602L17.5304 26.128L16.943 26.4866C16.691 26.675 16.6728 26.9836 16.756 27.1666L16.8342 27.3384Z" fill="white"/>
<path fill-rule="evenodd" clip-rule="evenodd" d="M21.4493 29.0439C21.5658 29.0393 21.6954 29.0373 21.8367 29.0373C21.8367 29.0373 22.1726 28.053 22.1916 28.022C22.0035 27.9386 21.6122 27.7308 21.4613 27.6359C21.5615 27.7855 21.8034 27.9557 21.7554 28.0875L21.4493 29.0439Z" fill="white"/>
<path fill-rule="evenodd" clip-rule="evenodd" d="M24.6453 23.2077H15.3636V26.7065C15.3636 28.1379 16.3968 29.0334 17.9217 29.0334C19.1952 29.0334 19.5313 29.0834 20.0052 29.5545C20.3317 29.228 20.6017 29.1063 21.1564 29.0609L21.1696 29.0067L21.462 28.1003C21.4458 28.0797 20.9673 27.5354 20.9673 27.5354C20.7777 27.5986 20.6183 27.6091 20.351 27.6091C20.076 27.6091 19.7665 27.5769 19.4296 27.5137C19.3959 27.5059 19.3642 27.5025 19.3329 27.5025C19.2915 27.5025 19.2888 27.5059 19.278 27.5261L19.2199 27.6222L19.1136 27.7986L18.9132 27.7521L18.0223 27.542L17.9001 27.744L17.9182 27.7657L18.0266 27.8855L17.9786 28.0413C17.9128 28.2453 17.7005 28.4833 17.6355 28.5492L17.413 28.7884L17.21 28.5314L17.0575 28.3398C16.8974 28.16 16.8603 27.8855 16.9504 27.597C16.9485 27.5986 16.9454 27.6001 16.9415 27.6005L16.6904 27.7048L16.5775 27.4586L16.4982 27.2842C16.3616 26.9771 16.4119 26.5286 16.7802 26.2572L17.497 25.8513L18.1794 25.9858C18.1956 25.9203 18.22 25.6854 18.2397 25.6257C18.2262 25.6241 18.2142 25.621 18.2006 25.621L17.8076 25.7683L17.4281 25.5059C17.4281 25.5059 17.28 25.3628 17.4146 25.2198L17.7813 24.6623L16.851 23.4919L18.2807 24.0804L18.3763 23.9625L18.5689 23.7307L18.7882 23.9396C18.8501 23.9993 18.8857 24.073 18.9031 24.1467C19.2969 24.3006 20.0033 24.7542 20.0656 25.4919L19.8447 25.5803V25.5857C19.8954 25.6458 19.9371 25.6707 19.9503 25.673L20.9707 25.7734C20.9971 25.7691 21.0288 25.7575 21.0651 25.747C21.1924 25.7036 21.3823 25.6408 21.6082 25.6408C21.7924 25.6408 21.9699 25.6831 22.1409 25.7633C22.204 25.7393 22.2813 25.7218 22.3711 25.716L22.4202 25.7148C22.9664 25.7148 23.2384 26.1239 23.4561 26.4507C23.4925 26.5073 23.5289 26.5604 23.5668 26.6131C23.7571 26.8829 24.0066 27.2776 24.0167 27.2947L24.1292 27.4707L23.9915 27.6316C23.8855 27.7544 23.7258 27.8991 23.4523 27.8991C23.3958 27.8991 23.3339 27.8928 23.2674 27.8801C23.2093 27.8692 23.156 27.8518 23.1049 27.83C23.0976 27.8843 23.0859 27.9487 23.0759 28.0041L22.8972 28.94C23.9675 28.6764 24.6472 27.8665 24.6472 26.7065L24.6453 23.2077Z" fill="#FFDD2D"/>
<path fill-rule="evenodd" clip-rule="evenodd" d="M15.3639 22.9258H22.583C22.2225 22.5524 22.2279 22.0799 22.3196 21.7728C22.2144 21.7224 22.1277 21.6619 22.0507 21.5953C21.7683 21.8038 20.9072 22.4323 20.6821 22.5897L20.6338 22.6222L17.8006 22.1089H17.7433C17.6753 22.1089 17.5758 22.1062 17.4668 22.093C17.4362 22.2218 17.3259 22.309 17.1998 22.309C17.1851 22.309 17.1693 22.3078 17.1546 22.3047C17.0807 22.2919 17.0161 22.2543 16.9732 22.1923C16.9291 22.131 16.9116 22.0585 16.9236 21.9837L16.9341 21.9225C16.6424 21.7162 16.3724 21.2553 16.4919 20.7695L16.5035 20.7183L16.5449 20.6885C16.5507 20.6842 16.5995 20.6505 16.673 20.609L16.4672 20.5772C16.3902 20.5636 16.3384 20.4915 16.3504 20.4155C16.3635 20.3384 16.4358 20.2833 16.5117 20.2981L17.0022 20.3756L17.047 18.645L17.7766 17.8712L18.2323 18.8322L17.7515 20.4973L18.1851 20.5656C18.2613 20.5776 18.3135 20.6493 18.3019 20.728C18.2907 20.7978 18.2311 20.8447 18.1631 20.8447C18.1557 20.8447 18.148 20.8447 18.1406 20.8439L17.7882 20.7869C17.7929 20.7978 17.7998 20.804 17.8041 20.8149C17.8416 20.8928 17.9248 20.9478 17.9735 20.9722L20.1332 21.0068C20.2249 20.9176 20.4512 20.6951 20.6848 20.4597C20.1529 20.2574 19.9599 19.7987 19.9278 19.4936C19.6307 19.3669 19.4257 19.1769 19.3119 18.9299C19.1735 18.6241 19.2226 18.3174 19.2597 18.1685C18.9715 18.0635 18.669 17.8712 18.3596 17.5634H15.1059C15.2456 17.939 15.3639 18.3457 15.3639 18.7501V22.9258Z" fill="#FFDD2D"/>
<path fill-rule="evenodd" clip-rule="evenodd" d="M18.3358 24.7258C18.2828 24.7208 18.2391 24.762 18.2348 24.8141C18.2314 24.8682 18.2708 24.914 18.3246 24.9152C18.3761 24.9195 18.4214 24.8798 18.4264 24.8265C18.4279 24.7756 18.39 24.7278 18.3358 24.7258Z" fill="black"/>
<path fill-rule="evenodd" clip-rule="evenodd" d="M22.6382 32.0628L22.2142 30.8939C22.7187 30.74 23.5859 30.4089 23.9747 30.1887L23.7155 31.0393L24.5936 31.332C24.0625 31.5991 23.4184 31.8484 22.6382 32.0628ZM20.0058 33.1134C18.9838 33.1134 17.8179 32.8777 17.474 32.7552L17.9962 31.3397C18.4291 31.4665 19.33 31.601 19.9837 31.5968H20.0251C20.6789 31.601 21.5787 31.4665 22.0139 31.3397L22.5349 32.7552C22.1914 32.8777 21.0251 33.1134 20.0058 33.1134ZM15.4153 31.332L16.2949 31.0393L16.0346 30.1887C16.4226 30.4089 17.2914 30.74 17.7947 30.8939L17.3703 32.0628C16.5928 31.8484 15.946 31.5991 15.4153 31.332ZM24.6331 31.0722L24.0985 30.8668L24.2463 30.3128L24.4087 29.7095C24.4087 29.7095 23.4614 30.2248 22.126 30.6113C21.7473 30.7198 21.4607 30.7698 21.4607 30.7698V31.1808C21.4607 31.1808 20.7466 31.3048 20.0251 31.3048H19.9837C19.2615 31.3048 18.5486 31.1808 18.5486 31.1808V30.7698C18.5486 30.7698 18.2612 30.7198 17.8829 30.6113C16.5479 30.2248 15.6013 29.7095 15.6013 29.7095L15.7615 30.3128L15.9123 30.8668L15.3758 31.0722L14.7808 31.2948C15.4624 31.6251 16.4075 32.105 17.2721 32.3423L17.0682 32.9009C17.0682 32.9009 18.1649 33.4014 19.9919 33.4061V33.4073H20.0166V33.4061C21.8456 33.4014 22.9415 32.9009 22.9415 32.9009L22.7365 32.3423C23.6014 32.105 24.548 31.6251 25.2265 31.2948L24.6331 31.0722Z" fill="black"/>
<path fill-rule="evenodd" clip-rule="evenodd" d="M17.7719 8.5435L18.0148 8.56909L18.12 8.34695L18.426 7.6906L18.9946 7.98524L19.2148 8.09806L20.0035 7.31416L20.6182 7.92399L20.7942 8.09806L21.0147 7.98524L21.5799 7.6906L21.8905 8.34695L21.9934 8.56909L22.2363 8.5435L22.4688 8.51559C22.3624 8.75557 22.2839 8.98391 22.2278 9.17271C21.6143 8.83 20.817 8.635 20.0035 8.635C19.1939 8.635 18.3974 8.83 17.7815 9.17271C17.7247 8.98391 17.6469 8.75557 17.5405 8.51559L17.7719 8.5435ZM20.0035 8.97732C21.0921 8.97732 21.9628 9.33903 22.444 9.724C22.444 9.724 22.5868 8.86179 23.0746 8.10116L22.198 8.20118L21.7392 7.22461L20.8584 7.67975L20.0035 6.83344L19.1513 7.67975L18.2686 7.22461L17.8106 8.20118L16.934 8.10116C17.4222 8.86179 17.5645 9.724 17.5645 9.724C18.0488 9.33903 18.9169 8.97732 20.0035 8.97732Z" fill="black"/>
<path fill-rule="evenodd" clip-rule="evenodd" d="M33.7984 23.4803C33.7984 23.4803 33.4197 24.1413 32.5501 24.1413H32.5393C31.4956 24.1351 31.0747 23.497 31.0747 23.497C31.0747 23.497 31.1351 24.327 30.7594 25.4474C30.3065 26.7977 30.7633 27.7623 30.7633 27.7623C30.7633 27.7623 30.5192 27.8286 30.2388 27.8286C30.1316 27.8286 30.0194 27.8177 29.9138 27.7902C29.0419 27.5828 28.8245 26.7873 28.8245 26.7873C28.8245 26.7873 28.9046 29.4735 25.7793 29.4735H25.755C25.755 29.4735 26.0304 29.0983 26.1116 28.0182C26.2602 26.0247 27.6067 25.751 27.6067 25.751C27.6067 25.751 26.888 25.6607 26.5766 25.3812C26.0896 24.9384 26.124 24.4275 26.124 24.4275C27.2234 24.4119 27.9441 24.0367 28.493 23.4005C29.0875 22.7112 29.1854 21.9688 29.1854 21.9688C29.1854 21.9688 28.5939 22.5061 27.4509 22.5061C27.3503 22.5061 27.2427 22.5011 27.1325 22.4906C26.5913 22.4464 26.2176 22.1021 26.2176 22.1021C27.4079 21.3368 28.2427 20.0024 27.5023 17.9931C26.9089 16.3823 25.4838 15.1793 24.0487 14.2729C23.5713 13.9744 23.3052 13.6417 23.3052 13.356C23.3052 12.683 24.2603 12.6613 24.6513 12.2096C25.1036 11.6839 24.82 10.8318 24.4285 10.3185C24.4285 10.3185 24.5604 10.2918 24.7686 10.2918C25.1813 10.2918 25.8962 10.3957 26.4838 11.0063C27.2636 11.815 26.9402 12.6962 26.9402 12.6962L27.1491 12.7369C27.2741 12.7632 27.3986 12.7683 27.5278 12.7749C27.5557 12.7749 27.5843 12.7764 27.6118 12.7764C28.7452 12.7764 29.2519 11.5889 29.2519 11.5889C29.2519 11.5889 30.4565 13.0742 28.6825 14.2384C28.3773 14.4373 28.2427 14.6222 28.2779 14.8187L28.3058 14.9478L28.4319 14.9703C29.7177 15.3196 30.3683 16.209 31.1629 17.2193C32.3698 18.7564 34.0765 18.8061 34.287 18.8061H34.3098C34.3098 18.8061 33.9206 20.0385 32.7725 20.0385C32.7532 20.0385 32.7369 20.0385 32.718 20.0373C32.1907 20.0183 31.9199 19.816 31.9199 19.816C31.9199 19.816 31.7145 22.6135 33.7984 23.4803ZM32.7725 20.4157C34.1798 20.4157 34.651 18.9809 34.6703 18.9193L34.8278 18.4133L34.3001 18.43H34.2982C34.1121 18.43 32.559 18.3885 31.4581 16.9863L31.354 16.856C30.6345 15.9395 29.9525 15.0672 28.7324 14.6695C28.7676 14.6373 28.8183 14.5985 28.8876 14.5532C29.5351 14.1267 29.9115 13.6084 30.0059 13.0067C30.1444 12.1019 29.568 11.38 29.5428 11.3505L29.151 10.8648L28.9061 11.4409C28.8895 11.4769 28.4783 12.3992 27.6118 12.3992H27.5472C27.488 12.3961 27.4311 12.3938 27.3758 12.3891C27.406 11.9778 27.3313 11.3412 26.7549 10.7434C26.0621 10.0246 25.2126 9.91687 24.7686 9.91687C24.531 9.91687 24.3732 9.94633 24.3558 9.94788L23.7643 10.0657L24.1291 10.548C24.4158 10.9198 24.6753 11.606 24.3674 11.9642C24.2688 12.0786 24.0665 12.1709 23.8726 12.2639C23.4742 12.4473 22.9296 12.7043 22.9296 13.356C22.9296 13.7778 23.2564 14.2194 23.8487 14.5947C25.601 15.6992 26.6822 16.8517 27.1491 18.1241C27.8717 20.0811 26.929 21.1973 26.0138 21.7858L25.603 22.0502L25.9627 22.3813C26.0111 22.4239 26.4501 22.812 27.1 22.8678C27.223 22.8759 27.3406 22.8825 27.4509 22.8825C27.8667 22.8825 28.2214 22.817 28.5096 22.729C28.4307 22.8678 28.3324 23.0101 28.2102 23.1527C27.6872 23.7602 27.0435 24.0367 26.1178 24.0518L25.7739 24.0572L25.7476 24.403C25.7441 24.4728 25.7186 25.114 26.3236 25.6591C26.4165 25.7436 26.5283 25.813 26.6459 25.8696C26.235 26.2403 25.818 26.8857 25.7372 27.991C25.6687 28.9137 25.4494 29.2553 25.4467 29.2588L25.0668 29.8403L25.7538 29.8496C26.8888 29.8496 27.758 29.5359 28.3603 28.9137C28.7162 28.5458 28.92 28.1302 29.04 27.7623C29.2376 27.9309 29.4926 28.079 29.8252 28.1577C29.9513 28.1872 30.0891 28.2035 30.2388 28.2035C30.5594 28.2035 30.8279 28.1352 30.8577 28.1279L31.2964 28.0112L31.1026 27.601C31.0882 27.5681 30.7223 26.7442 31.1161 25.57C31.2855 25.0617 31.3722 24.6069 31.4143 24.2526C31.6905 24.3968 32.0607 24.5158 32.5389 24.5174C33.6247 24.5174 34.1036 23.7044 34.1249 23.6703L34.3388 23.297L33.9423 23.1334C32.6483 22.5949 32.3617 21.1488 32.3044 20.3661C32.4213 20.389 32.5551 20.4095 32.706 20.4138L32.7725 20.4157Z" fill="black"/>
<path fill-rule="evenodd" clip-rule="evenodd" d="M31.1909 14.2763C31.4532 14.2763 31.7588 14.3658 32.0477 14.6651C32.9548 15.5878 33.7985 15.6394 33.7985 15.6394C33.6453 15.9798 33.2009 16.2783 32.7405 16.2783C32.6342 16.2783 32.527 16.262 32.4214 16.2252C31.7971 16.0143 31.5738 15.0765 30.4779 14.4918C30.4779 14.4918 30.7835 14.2763 31.1909 14.2763ZM30.2992 14.8252C30.8242 15.1055 31.1302 15.4812 31.3982 15.8142C31.662 16.1395 31.9116 16.452 32.3034 16.5822C32.4423 16.6299 32.5901 16.6528 32.7405 16.6528C33.3274 16.6528 33.9177 16.2926 34.1413 15.7937L34.3664 15.2939L33.8217 15.2614C33.7962 15.261 33.0957 15.1966 32.317 14.3992C31.9963 14.0716 31.6083 13.8998 31.1909 13.8998C30.6807 13.8998 30.3023 14.1553 30.2606 14.1817L29.7604 14.5349L30.2992 14.8252Z" fill="black"/>
<path fill-rule="evenodd" clip-rule="evenodd" d="M30.5455 19.8078V19.8272C30.2299 17.2724 28.3789 15.4274 26.319 14.3062C26.1287 14.2038 25.9523 14.117 25.7821 14.034C26.4087 14.1317 27.4187 14.1434 28.1986 13.4657C28.1986 13.4657 27.0056 14.345 24.5628 13.5463C25.2386 13.986 26.5526 14.6066 27.753 15.6119C30.7517 18.2532 28.6063 20.8293 28.6063 20.8293C29.684 19.702 29.7289 18.4943 29.4117 17.5081C29.9792 18.4552 30.342 19.6039 30.2856 21.0212C30.2032 23.0512 29.0895 24.807 27.9181 26.2174C27.3553 26.902 27.2296 27.7433 27.2296 27.7433C27.2296 27.7433 27.4567 27.0009 28.1081 26.2371C29.3637 24.7639 30.4372 23.2341 30.578 21.029C30.7076 21.4295 31.2426 22.5414 32.0909 22.9604C32.0909 22.9604 31.0248 22.3165 30.5455 19.8078Z" fill="black"/>
<path fill-rule="evenodd" clip-rule="evenodd" d="M14.23 29.4735C11.1044 29.4735 11.1841 26.7872 11.1841 26.7872C11.1841 26.7872 10.9659 27.5828 10.0952 27.7902C9.99072 27.8177 9.87931 27.8286 9.77062 27.8286C9.49016 27.8286 9.24723 27.7623 9.24723 27.7623C9.24723 27.7623 9.70176 26.7977 9.24878 25.4474C8.87432 24.3274 8.93506 23.497 8.93506 23.497C8.93506 23.497 8.51495 24.1351 7.47012 24.1413H7.45967C6.59085 24.1413 6.21136 23.4803 6.21136 23.4803C8.29369 22.6135 8.08983 19.8159 8.08983 19.8159C8.08983 19.8159 7.81904 20.0183 7.29102 20.0373C7.27167 20.0385 7.25465 20.0385 7.23647 20.0385C6.08758 20.0385 5.69842 18.806 5.69842 18.806H5.72163C5.93401 18.806 7.63878 18.756 8.84492 17.2192C9.63987 16.2085 10.2913 15.32 11.5752 14.9703L11.704 14.9474L11.7315 14.8187C11.7671 14.6221 11.6328 14.4372 11.3276 14.2383C9.55399 13.0741 10.7586 11.5893 10.7586 11.5893C10.7586 11.5893 11.2622 12.7764 12.3988 12.7764C12.4262 12.7764 12.4521 12.7752 12.4815 12.7752C12.6092 12.7682 12.7353 12.7632 12.8599 12.7368L13.0688 12.6961C13.0688 12.6961 12.7442 11.8149 13.5264 11.0062C14.114 10.3956 14.8281 10.2917 15.2408 10.2917C15.4501 10.2917 15.5801 10.3185 15.5801 10.3185C15.1894 10.8318 14.9062 11.6839 15.358 12.2096C15.7491 12.6612 16.703 12.683 16.703 13.356C16.703 13.6417 16.4373 13.9743 15.9607 14.2728C14.5244 15.1792 13.0997 16.3822 12.5067 17.993C11.7671 20.0028 12.6018 21.3368 13.7937 22.1021C13.7937 22.1021 13.4188 22.4464 12.8769 22.4906C12.7666 22.501 12.6599 22.5061 12.5574 22.5061C11.4154 22.5061 10.8243 21.9687 10.8243 21.9687C10.8243 21.9687 10.9226 22.7111 11.5137 23.4008C12.0661 24.0366 12.7856 24.4119 13.8854 24.4274C13.8854 24.4274 13.9202 24.9384 13.4339 25.3807C13.1217 25.6606 12.4026 25.751 12.4026 25.751C12.4026 25.751 13.7504 26.0247 13.8985 28.0177C13.979 29.0982 14.2525 29.4735 14.2525 29.4735H14.23ZM14.5623 29.2587C14.5612 29.2552 14.343 28.9137 14.273 27.991C14.1913 26.8853 13.7743 26.2402 13.3624 25.8696C13.4815 25.813 13.5918 25.7436 13.6846 25.6591C14.2896 25.114 14.2641 24.4728 14.2598 24.403L14.2366 24.0572L13.89 24.0518C12.967 24.0366 12.3222 23.7602 11.7992 23.1527C11.6777 23.0101 11.5794 22.8678 11.4998 22.729C11.7876 22.817 12.14 22.8825 12.5574 22.8825C12.6692 22.8825 12.7856 22.8759 12.9086 22.8678C13.5585 22.8119 13.9983 22.4243 14.0471 22.3812L14.4068 22.0501L13.9964 21.7857C13.0777 21.1972 12.1388 20.0811 12.8599 18.1241C13.3272 16.8517 14.4068 15.6991 16.1619 14.5946C16.7541 14.2193 17.0783 13.7778 17.0783 13.356C17.0783 12.7043 16.5352 12.4472 16.1367 12.2639C15.9425 12.1708 15.7402 12.0786 15.642 11.9642C15.3333 11.606 15.5932 10.9198 15.8799 10.548L16.2474 10.0657L15.6524 9.94785C15.635 9.94592 15.4791 9.91684 15.2408 9.91684C14.7967 9.91684 13.9488 10.0246 13.2564 10.7434C12.6792 11.3416 12.6034 11.9778 12.6332 12.3891C12.5775 12.3937 12.5214 12.3961 12.4622 12.3992H12.3988C11.5299 12.3992 11.1195 11.4769 11.1036 11.4408L10.8595 10.8647L10.4638 11.3505C10.4418 11.38 9.86384 12.1018 10.0046 13.0067C10.0979 13.6084 10.475 14.1267 11.1222 14.5531C11.1926 14.5985 11.2417 14.6373 11.2769 14.6694C10.0553 15.0672 9.37411 15.9395 8.6546 16.856L8.55093 16.9862C7.45155 18.3885 5.89493 18.43 5.70887 18.43L5.17852 18.4133L5.33983 18.9192C5.35878 18.9809 5.82801 20.4157 7.23647 20.4157L7.30417 20.4137C7.45349 20.4095 7.58694 20.3889 7.7057 20.3661C7.64768 21.1484 7.36026 22.5948 6.06592 23.1333L5.67057 23.2969L5.88449 23.6703C5.90499 23.7044 6.38544 24.5174 7.47321 24.5174C7.94863 24.5158 8.31844 24.3968 8.59503 24.253C8.63681 24.6069 8.72384 25.0617 8.89366 25.5699C9.28746 26.7442 8.92074 27.568 8.90682 27.601L8.71224 28.0112L9.15168 28.1279C9.18069 28.1352 9.45109 28.2035 9.77062 28.2035C9.91993 28.2035 10.058 28.1872 10.183 28.1577C10.516 28.079 10.7737 27.9309 10.9694 27.7623C11.0886 28.1302 11.2932 28.5458 11.6483 28.9137C12.2521 29.5359 13.1206 29.8496 14.2552 29.8496L14.9426 29.8402L14.5623 29.2587Z" fill="black"/>
<path fill-rule="evenodd" clip-rule="evenodd" d="M7.96095 14.6647C8.25107 14.3658 8.55628 14.2759 8.8201 14.2759C9.22512 14.2759 9.53187 14.4918 9.53187 14.4918C8.43714 15.0765 8.21123 16.0143 7.5861 16.2256C7.48282 16.2624 7.37567 16.2779 7.2689 16.2779C6.80896 16.2779 6.36371 15.9798 6.21169 15.6394C6.21169 15.6394 7.05498 15.5878 7.96095 14.6647ZM7.2689 16.6528C7.41977 16.6528 7.56715 16.6303 7.70641 16.5826C8.09904 16.452 8.34855 16.1399 8.61199 15.8142C8.88161 15.4816 9.18411 15.1055 9.70943 14.8252L10.2498 14.5349L9.74811 14.1813C9.70634 14.1549 9.32995 13.9002 8.8201 13.9002C8.40155 13.9002 8.01317 14.0716 7.69287 14.3992C6.91301 15.197 6.21439 15.261 6.18925 15.2618L5.64536 15.294L5.86857 15.7941C6.09332 16.2926 6.68246 16.6528 7.2689 16.6528Z" fill="black"/>
<path fill-rule="evenodd" clip-rule="evenodd" d="M9.72422 21.0212C9.66581 19.6039 10.029 18.4552 10.5973 17.5081C10.2805 18.4943 10.3234 19.702 11.4027 20.8297C11.4027 20.8297 9.25654 18.2532 12.2572 15.6119C13.4568 14.6066 14.7697 13.986 15.4455 13.5463C13.0034 14.345 11.8108 13.4657 11.8108 13.4657C12.5899 14.1434 13.6003 14.1317 14.2266 14.034C14.0571 14.117 13.8792 14.2035 13.69 14.3062C11.6294 15.4274 9.77954 17.2724 9.46234 19.8272V19.8078C8.98383 22.3165 7.91849 22.9604 7.91849 22.9604C8.76604 22.5414 9.29987 21.4295 9.42984 21.029C9.57142 23.2341 10.6449 24.7639 11.9002 26.2371C12.5516 27.0009 12.781 27.7433 12.781 27.7433C12.781 27.7433 12.6537 26.902 12.0882 26.2174C10.9188 24.8074 9.80623 23.0512 9.72422 21.0212Z" fill="black"/>
<path fill-rule="evenodd" clip-rule="evenodd" d="M19.2983 15.8522V16.3589C19.4732 16.1461 19.8095 16.1895 19.8095 16.1895V16.9199C19.8095 16.9199 19.7983 17.2793 19.6705 17.4348H20.4C20.2739 17.2793 20.2615 16.9199 20.2615 16.9199V16.1895C20.2615 16.1895 20.5989 16.1461 20.7723 16.3589V15.8522H19.2983Z" fill="black"/>
<path fill-rule="evenodd" clip-rule="evenodd" d="M18.9854 12.8476C19.2188 13.0329 19.3534 13.0639 19.3577 13.0666L19.449 13.1089V12.6321L18.5918 12.2711C18.5918 12.2711 18.5992 12.5475 18.9854 12.8476Z" fill="black"/>
<path fill-rule="evenodd" clip-rule="evenodd" d="M21.0227 12.8476C21.4101 12.5475 21.4174 12.2711 21.4174 12.2711L20.5602 12.6321V13.1089L20.6508 13.0666C20.6554 13.0639 20.7897 13.0329 21.0227 12.8476Z" fill="black"/>
<path fill-rule="evenodd" clip-rule="evenodd" d="M20.0037 11.5772L17.94 10.7599C18.1156 10.3436 18.9249 9.98922 20.0037 9.98806C21.0842 9.98922 21.8934 10.3436 22.0683 10.7599L20.0037 11.5772ZM21.5426 14.137L20.1554 14.8698V11.9032L22.0377 11.2628L21.5426 14.137ZM22.4017 14.9244L23.0361 15.2935H23.045L23.2044 15.3869C22.8462 15.4862 22.5727 15.6657 22.3429 15.9014C22.3344 15.9087 22.3271 15.9173 22.3178 15.9262C22.2652 15.9824 22.2129 16.0429 22.1627 16.1057C22.1538 16.1173 22.1437 16.1297 22.1333 16.1437C22.0845 16.2069 22.0377 16.272 21.9936 16.3391C21.9863 16.3507 21.9778 16.3623 21.97 16.3736C21.9178 16.4523 21.8671 16.536 21.8172 16.6229C21.3654 17.4029 20.6447 17.8689 20.0037 17.87C19.3635 17.8689 18.6425 17.4029 18.1914 16.6229C18.1423 16.5383 18.0928 16.4565 18.0406 16.3771C18.0301 16.3623 18.0208 16.3468 18.0112 16.334C17.9671 16.2693 17.9222 16.2057 17.8773 16.146C17.8657 16.1297 17.8553 16.1173 17.8437 16.1034C17.7945 16.0429 17.7443 15.9832 17.6932 15.9281C17.6824 15.9192 17.675 15.9087 17.6657 15.8998C17.4348 15.6637 17.1621 15.4862 16.8035 15.3869L16.9644 15.2935H16.9717L17.6073 14.9244L18.2591 14.5503L20.0006 15.5005L20.0037 15.4966L20.0088 15.5005L21.7499 14.5503L22.4017 14.9244ZM24.9041 17.5634C24.7622 17.939 24.6446 18.3457 24.6446 18.7501L24.6457 21.3607C24.1015 21.2692 24.0373 20.6819 24.0349 20.6563L24.0249 20.5369L23.9077 20.5264C23.6713 20.5036 23.5143 20.4035 23.382 20.2748C23.115 20.0073 23.1147 19.5739 23.115 19.57C23.1112 19.5921 22.8214 19.9992 23.158 20.4439C23.2996 20.6311 23.505 20.7466 23.7703 20.792C23.8326 21.1177 24.0748 21.5778 24.6457 21.648V22.9258H23.0396C22.2992 22.5125 22.6129 21.786 22.6272 21.7546L22.6899 21.617L22.5483 21.5631C21.746 21.265 21.9673 20.4632 21.9778 20.4287L22.0102 20.3117L21.9008 20.2601C21.2389 19.9523 21.3283 19.1238 21.3372 19.0889C21.1333 19.2548 21.0602 19.5921 21.2002 19.9232C21.1244 20.0104 21.0227 20.1151 20.9109 20.231C20.225 20.0558 20.2037 19.4243 20.2037 19.3952L20.2022 19.2979L20.1121 19.263C19.8444 19.1637 19.6606 19.0145 19.5697 18.8144C19.4684 18.5927 19.504 18.3605 19.5318 18.2484C19.6103 18.2666 19.6885 18.2787 19.7631 18.2852C19.8405 18.293 19.9194 18.298 19.9991 18.298H20.0099C20.0892 18.298 20.1678 18.293 20.2451 18.2852C20.6726 18.2426 21.1507 18.0588 21.6493 17.5634H24.9041ZM22.8973 28.9403L23.0767 28.0037C23.086 27.9486 23.0976 27.8843 23.1054 27.8304C23.1564 27.8517 23.2094 27.8688 23.2675 27.8796C23.3348 27.8924 23.3963 27.899 23.4524 27.899C23.7262 27.899 23.886 27.7548 23.992 27.6315L24.1293 27.471L24.0171 27.2946C24.0071 27.2772 23.758 26.8829 23.5669 26.6131C23.529 26.5599 23.4934 26.5072 23.457 26.4502C23.2392 26.1238 22.9669 25.7148 22.4203 25.7148L22.3715 25.716C22.2818 25.7218 22.2044 25.7396 22.1418 25.7633C21.97 25.683 21.7928 25.6411 21.6087 25.6411C21.3824 25.6411 21.1929 25.7036 21.066 25.7466C21.0296 25.7571 20.9971 25.7687 20.9716 25.7737L19.9504 25.6729C19.9376 25.6702 19.8962 25.6458 19.8451 25.5857V25.5807L20.066 25.4919C20.0037 24.7541 19.297 24.3005 18.9032 24.1466C18.8862 24.073 18.8506 23.9993 18.7887 23.9392L18.5694 23.7306L18.3763 23.9625L18.2816 24.0803L16.8514 23.4918L17.7818 24.6622L17.4147 25.2197C17.2804 25.3624 17.4286 25.5062 17.4286 25.5062L17.8081 25.7679L18.2011 25.621C18.2146 25.621 18.2266 25.6241 18.2402 25.6256C18.2208 25.6853 18.1961 25.9203 18.1798 25.9858L17.4975 25.8516L16.7807 26.2572C16.412 26.5285 16.3617 26.9771 16.4986 27.2845L16.578 27.4586L16.6909 27.7048L16.942 27.6009C16.9454 27.5997 16.9489 27.5985 16.9512 27.5966C16.8611 27.8854 16.8979 28.1599 17.0584 28.3398L17.2108 28.5317L17.4135 28.7883L17.6359 28.5488C17.7009 28.4836 17.9137 28.2452 17.9787 28.0413L18.027 27.8854L17.9187 27.7656L17.9005 27.7439L18.0228 27.5419L18.9133 27.7525L19.114 27.7986L19.2204 27.6222L19.2784 27.5264C19.2896 27.5059 19.292 27.5028 19.3334 27.5028C19.3651 27.5028 19.3964 27.5059 19.4305 27.5136C19.7666 27.5772 20.0765 27.6086 20.3515 27.6086C20.6184 27.6086 20.7782 27.5985 20.9681 27.5354C20.9681 27.5354 21.4462 28.0797 21.4629 28.1006L21.1697 29.0062L21.1569 29.0609C20.6022 29.1059 20.3322 29.228 20.0057 29.5544C19.5318 29.0834 19.196 29.0337 17.9222 29.0337C16.3973 29.0337 15.3637 28.1378 15.3637 26.7065V23.2077H24.6457L24.6477 26.7065C24.6477 27.8664 23.968 28.6763 22.8973 28.9403ZM17.1802 26.962L17.2286 27.0829C17.1965 27.1888 16.8344 27.3384 16.8344 27.3384L16.7563 27.1667C16.6731 26.9837 16.6909 26.6751 16.9431 26.4863L17.5303 26.1281L18.1531 26.2603C18.1415 26.4584 18.2595 26.6065 18.2595 26.6065L17.6073 26.4809L17.217 26.7511C17.1505 26.7976 17.1458 26.8829 17.1802 26.962ZM22.799 27.9509L22.599 28.9973C22.4706 29.0155 22.336 29.0248 22.1967 29.0303L22.4079 28.0246C22.4706 27.7257 21.6698 27.6327 21.2741 27.0449C21.0811 27.2624 20.7175 27.3276 20.3515 27.3276C20.0181 27.3276 19.685 27.2744 19.4823 27.2341C19.4308 27.226 19.3817 27.2202 19.3334 27.2202C19.2165 27.2202 19.1098 27.2566 19.0359 27.3803L18.9779 27.4788L17.8866 27.2213L17.615 27.6718C17.5771 27.7451 17.574 27.8063 17.6359 27.8746L17.7094 27.9552C17.6588 28.1146 17.4317 28.3557 17.4317 28.3557L17.2696 28.1525C17.1412 28.0087 17.1621 27.7451 17.2959 27.5012L17.7288 26.7689L18.6533 26.9027L18.5098 26.5747C18.3168 26.1405 18.6111 25.5888 18.6425 25.2709C18.6316 25.367 18.5434 25.3888 18.4413 25.3888C18.3481 25.3888 18.244 25.3709 18.1748 25.3709C18.1473 25.3709 18.1241 25.3736 18.1117 25.3829L17.8611 25.5353L17.6638 25.3601C17.6398 25.3267 17.6325 25.2476 17.6901 25.1887L18.1473 24.6746L17.6073 24.0419L18.3636 24.423L18.5949 24.1424C18.6583 24.2048 18.6305 24.3676 18.6305 24.3676C18.8665 24.3734 19.5287 24.7402 19.5639 25.5969C19.5658 25.6233 19.5658 25.6524 19.5658 25.6807C19.5658 25.6807 19.572 25.6915 19.5836 25.709C19.6301 25.7737 19.7597 25.9389 19.9233 25.954L20.9689 26.0579H20.9731C21.0876 26.0579 21.3159 25.923 21.6087 25.923C21.7685 25.923 21.9456 25.9637 22.1348 26.0831C22.1348 26.0831 22.2304 26.0075 22.3843 25.9997C22.3959 25.9982 22.4095 25.9982 22.4203 25.9982C22.8891 25.9982 23.0841 26.4231 23.3359 26.7759C23.5251 27.0449 23.7781 27.4435 23.7781 27.4435C23.6848 27.5543 23.5982 27.6164 23.4524 27.6164C23.4125 27.6164 23.3673 27.6133 23.3177 27.6032C22.8145 27.5102 22.7421 26.4739 22.4551 26.3921C22.4396 26.3878 22.4242 26.3863 22.4095 26.3863C22.317 26.3863 22.2768 26.4685 22.2768 26.4685C22.4079 26.822 22.3309 26.9647 22.4725 27.2368C22.5777 27.4388 22.7653 27.6047 22.8423 27.6834C22.8423 27.6834 22.8214 27.8366 22.799 27.9509ZM21.8366 29.0372C21.6958 29.0372 21.5662 29.0392 21.4497 29.0438L21.7561 28.0878C21.8037 27.9552 21.5619 27.785 21.4617 27.6358C21.6126 27.7307 22.0037 27.9389 22.1917 28.0219C22.1727 28.0529 21.8366 29.0372 21.8366 29.0372ZM17.2824 20.4222L17.3261 18.7602L17.6982 18.3655L17.9319 18.8559L17.4711 20.4512L17.2824 20.4222ZM17.5501 20.937C17.6108 21.0649 17.7203 21.1502 17.7972 21.1987C17.7945 21.3189 17.7833 21.5046 17.752 21.6689C17.7443 21.7058 17.735 21.7395 17.7249 21.7732C17.7195 21.7945 17.7133 21.812 17.709 21.8259C17.5949 21.8259 17.3721 21.812 17.1891 21.7453C16.9868 21.6705 16.6851 21.2987 16.7547 20.8885C16.8422 20.835 17.0449 20.7207 17.2348 20.7207C17.3806 20.7207 17.4804 20.7897 17.5501 20.937ZM21.8605 21.3836C21.5743 21.5949 20.837 22.1345 20.5693 22.3218L17.9949 21.8581C18.0011 21.8353 18.0073 21.812 18.0127 21.7895C18.0464 21.6554 18.0812 21.4728 18.0827 21.2576L20.2467 21.2925L20.2881 21.2502C20.3209 21.2173 21.0064 20.5536 21.3557 20.1717C21.4389 20.2764 21.5426 20.376 21.6791 20.4632C21.6327 20.7176 21.6524 21.0789 21.8605 21.3836ZM18.3597 17.5634C18.6692 17.8716 18.9721 18.0631 19.2599 18.1686C19.2227 18.3174 19.1736 18.6245 19.3121 18.9303C19.4254 19.1769 19.6308 19.3669 19.9279 19.4937C19.9604 19.7988 20.1531 20.2574 20.685 20.4594C20.4517 20.6951 20.225 20.9172 20.1333 21.0068L17.974 20.9727C17.9253 20.9482 17.8413 20.8928 17.8042 20.8149C17.8 20.8036 17.793 20.7978 17.7884 20.787L18.1408 20.844C18.1481 20.8451 18.1558 20.8451 18.1632 20.8451C18.2313 20.8451 18.2905 20.7978 18.3017 20.7276C18.3133 20.6497 18.2614 20.5776 18.1852 20.5656L17.752 20.497L18.2324 18.8323L17.7771 17.8716L17.0472 18.645L17.0023 20.376L16.5118 20.2977C16.436 20.283 16.3636 20.3384 16.3501 20.4156C16.3385 20.4915 16.3903 20.564 16.4673 20.5776L16.6731 20.609C16.5996 20.6509 16.5509 20.6842 16.5451 20.6889L16.5037 20.718L16.4921 20.7695C16.3729 21.2553 16.6426 21.7162 16.9342 21.9225L16.9238 21.9837C16.9118 22.0586 16.9288 22.1314 16.9737 22.1923C17.0162 22.2547 17.0808 22.2919 17.1543 22.3051C17.1694 22.3078 17.1857 22.309 17.1996 22.309C17.3261 22.309 17.4363 22.2214 17.4673 22.0935C17.5756 22.1062 17.675 22.109 17.7431 22.109H17.8011L20.6339 22.6223L20.6822 22.5901C20.9078 22.4319 21.7685 21.8035 22.0505 21.5953C22.1282 21.6623 22.2149 21.7228 22.3197 21.7732C22.228 22.0799 22.2226 22.5525 22.5835 22.9258H15.3637V18.7501C15.3637 18.3457 15.2457 17.939 15.1061 17.5634H18.3597ZM17.9694 11.2628L19.8533 11.9032V14.8698L18.4661 14.137L17.9694 11.2628ZM22.5657 10.9049C22.5657 10.1811 21.3499 9.52982 20.008 9.52982H20.0006C18.6587 9.52982 17.4429 10.1811 17.4429 10.9049L17.4696 11.0829L18.0054 14.1653L17.4673 14.4786L16.0747 15.2935H16.0797C16.0797 15.2935 15.7664 15.4548 15.6213 15.554C15.091 15.9231 14.9784 16.4616 15.2863 16.6841C15.3621 16.2449 15.7084 15.7862 16.3571 15.7862C16.824 15.7862 17.1802 16.0278 17.4673 16.3899C17.5416 16.4814 17.6116 16.5791 17.6769 16.6841C17.7574 16.8167 17.8386 16.933 17.9187 17.045H14.3316C14.5954 17.5762 14.8461 18.1387 14.8461 18.7501V26.7065C14.8461 28.6325 16.3238 29.5517 17.9222 29.5517C19.1577 29.5517 19.3241 29.4951 20.0057 30.1759C20.6842 29.4951 20.8509 29.5517 22.0872 29.5517C23.6868 29.5517 25.1625 28.6325 25.1625 26.7065V18.7501C25.1625 18.1387 25.4128 17.5762 25.6778 17.045H22.0895C22.1696 16.933 22.2505 16.8167 22.3309 16.6841C22.3975 16.5791 22.4671 16.4814 22.5398 16.3899C22.8296 16.0262 23.1847 15.7862 23.652 15.7862C24.2999 15.7862 24.6457 16.2449 24.7227 16.6841C25.0306 16.4616 24.9192 15.9231 24.3858 15.554C24.243 15.4548 23.9293 15.2935 23.9293 15.2935H23.9344L22.5398 14.4786L22.0037 14.1653L22.5398 11.0829L22.5657 10.9049Z" fill="black"/>
</svg>
